/* XPM */
static char *bark[] = {
/* columns rows colors chars-per-pixel */
"64 64 127 2 ",
"   c #1F130F",
".  c #220E0A",
"X  c #24130D",
"o  c #2A160E",
"O  c #2E180F",
"+  c #2A1611",
"@  c #271811",
"#  c #2E1E19",
"$  c #381E15",
"%  c #321F19",
"&  c #362016",
"*  c #3A2216",
"=  c #35221B",
"-  c #3B251C",
";  c #3D291E",
":  c #342521",
">  c #3A2720",
",  c #3E2A22",
"<  c #412616",
"1  c #40261B",
"2  c #422A1D",
"3  c #4A2F1F",
"4  c #51311C",
"5  c #432D24",
"6  c #492F24",
"7  c #432E28",
"8  c #482F28",
"9  c #453126",
"0  c #4B3225",
"q  c #46322A",
"w  c #4B352B",
"e  c #4F392C",
"r  c #593723",
"t  c #5C3B27",
"y  c #513729",
"u  c #5A3D2D",
"i  c #4C3731",
"p  c #4D3932",
"a  c #543D33",
"s  c #593E32",
"d  c #513E39",
"f  c #57412D",
"g  c #5F422F",
"h  c #564136",
"j  c #5B4235",
"k  c #54413A",
"l  c #5C443A",
"z  c #5D483D",
"x  c #66432F",
"c  c #6A432D",
"v  c #654836",
"b  c #61463A",
"n  c #644A3C",
"m  c #6B4E3C",
"M  c #724B35",
"N  c #6D503E",
"B  c #73533D",
"V  c #594641",
"C  c #5E4941",
"Z  c #604741",
"A  c #644D42",
"S  c #6A4F41",
"D  c #675146",
"F  c #6C5243",
"G  c #6C554B",
"H  c #735544",
"J  c #765946",
"K  c #7C5A44",
"L  c #715649",
"P  c #7A5D4B",
"I  c #705750",
"U  c #745D52",
"Y  c #7A5E51",
"T  c #7D614E",
"R  c #766053",
"E  c #7D6252",
"W  c #7D6559",
"Q  c #7E685E",
"!  c #825B44",
"~  c #815E49",
"^  c #83624E",
"/  c #826553",
"(  c #886650",
")  c #866855",
"_  c #8C6B55",
"`  c #866C5D",
"'  c #8B6D5A",
"]  c #916B56",
"[  c #916E58",
"{  c #8E725E",
"}  c #90705C",
"|  c #98745C",
" . c #95785E",
".. c #836E65",
"X. c #886E61",
"o. c #867065",
"O. c #8E7461",
"+. c #8E7469",
"@. c #967460",
"#. c #987764",
"$. c #937966",
"%. c #997863",
"&. c #917669",
"*. c #9D7B68",
"=. c #9B7C6A",
"-. c #A17E69",
";. c #9D816C",
":. c #9D826D",
">. c #9B8175",
",. c #98837B",
"<. c #A3806B",
"1. c #AB876F",
"2. c #A28772",
"3. c #A78877",
"4. c #AA8A75",
"5. c #A5897A",
"6. c #AC8E7B",
"7. c #B2947C",
"8. c #B9967F",
"9. c #A68C80",
"0. c #AD9285",
"q. c #B59582",
"w. c #BB9A84",
"e. c #B0968B",
"r. c #BE9D88",
"t. c #C09D85",
"y. c #C2A08B",
/* pixels */
"' v s a p i # X # q M c M ^ ^ %.} 2.` l u u w q 5 w X.7.' ' B w y 5 % i , 7 a i q = % 1 5 5 8 6 u v m 2.S S ` H E O./ } 3.*.~ B ",
"/ u j w a p = X o e M K _ ] #.<.%.O.O.j a u p w 9 w E &./ P n 5 2 w w j 5 - w 5 5 5 - $ 5 w l a 0 s y F 0 s b u m Y P _ X.Y ' E ",
"l n u 0 C z % X # w :.[ _ @.*._ %.T j u h l l p 5 - j E n n a % * 0 5 a q - q p p i 5 * l Z A l a S j u 6 0 y u j E ` H _ n j s ",
"a w j n a a # # - A $.Q / ' @.' ' T j a u a a p 5 * u L A n A i a l e u 9 5 5 w w w 5 6 j ) U G A A A l n n l j l l n t r 0 w a ",
"q 5 w n j w = X - H L L 9.0.&.} O.E F u 9 5 w q - O 5 h a w 7 5 q 5 9 w 5 9 , = = q 5 y A C C l A l l a a a a a 4 l a t 4 u a p ",
"p p k w a 5 = # = w a A D ..Q P U A n 0 w w w 5 5 o - a w > - 7 - # - , - = # + = - - q 7 5 w l z h a e q ; ; 5 ; , 5 q y z p i ",
"# : = # = % # O % 5 5 q w l k a a w S w w 5 - 2 5 & - , 5 q k V k p q - = = % # % # % - - , , w w 5 = = % % % # X # = % # % = # ",
"X   @ @ # X # O o + + o # = , q j A G u w w 5 - , & - , w p p i p q 9 5 9 5 - = = = > - = 5 5 5 5 5 - , # # % # # # # X # X X X ",
"# @ = @ o % + # # o X o # = > 5 h l n w 5 - 5 , , % 5 q w a d q q 9 , q q 9 - & % = = = - 5 , , 5 , & = = - = = % % = = = # X # ",
"d q w 7 % = % % % % o # # = = - 0 a j w 6 5 5 5 = - 0 w 0 l 5 = , ; - ; ; 5 ; = = - - - % - 5 , ; 5 - - = & 5 , 5 , w ..A q w q ",
"S u 0 n 5 % % % * % % O % , = = 2 0 j j u 5 5 7 % % * 5 5 5 - % = % & % - 5 2 - 2 2 & - % % - - - * - 5 5 5 e a A G U @.E / *./ ",
"F 0 5 l a q # # % % * - - , , ; 5 0 j w 2 0 w - % % 2 0 6 * $ 1 * % * * 0 u e e j l 2 * * % 9 l a u l E Q G ) ) X.+.Q L Q >.e.*.",
"E S u l a w % - % % 5 w l A l a b w 0 2 * - - 5 % # 2 j j b b l y 5 0 0 j s a u j m u 2 * * e F P H E Y ) F L ) @.*.P v / *.5.Y ",
"L y j n h p % = O o & u u F n v n u 0 5 * % 9 , - % 5 u / / { ` ) L F l F n F j n A u 0 1 2 j H P K ^ / L H m J ) / P O.2.:.F ` ",
"v u n b a a - = % - * u u L H L F A a a w l w q w 5 0 l O.) / S ` *.` E L F l A n n 0 0 n F F H T _ ^ T H P v j H H ` O.F n u u ",
"u 0 u l A A w , - - - a N H T P P ' ` U U l w q w q 0 A ` / ' / } %.$.' @.E j a a 0 2 5 n j A P T } B P ) O.n n u j J j 0 u 5 0 ",
"6 a l G C l w 5 , , - j L F H P P @.) / / W a w w 5 5 F L J H _ @._ T ' @.Q k q 5 - = ; y 0 b P P { B L ` ` m 0 2 n j 0 0 w 2 - ",
"8 l A I l w , 5 , 5 - 0 n n L L m E T L A G a w w 2 6 L H ' _ P P ^ } ' / Q k , > = = , j j b O.' L F A L F j 0 2 j u 2 - - 0 0 ",
"5 w V ` C 5 , 5 5 - & ; 0 j H B m J F L z D a e w - 0 *.@.P m m P / ' ' 6.o.l % # % , , j j L T E n n l R S a w 2 0 2 * - 5 a a ",
"5 5 l n b 7 - = - % & ; 0 u P E n L L F j A h a e 2 0 5.*.^ 6._ M P N P E G p = # = - - j u v L U F j u F b w % % % % - 2 2 w a ",
"w 5 s l u q - - = - - * 0 u P ) / ' _ ` n U j a u 0 u 0.4.' r.#.c K [ / E F q # # # % - w u n P U F 0 e z y 6 % % % & & * 5 a u ",
"w 5 a s 0 w > , = - & 2 u u P ^ ` O.@.} ` P A j u 2 u 3.q.' q.-.M M ` ` H a 5 # o o % * 0 u G H l l 0 u i 5 - % = = % - 0 0 u u ",
"8 6 5 5 w - = , - - , w a h v m ` *.*.>.2.B n u 0 0 0 @.} ) w.1.! c _ ' F l q X X # % 2 u a a a w w q w w 5 % # % = 2 q y y e w ",
"1 5 5 5 5 - % , - = = - - 2 0 0 N ` K ' @.v g f y 2 u m m H *.@./ H B m u a - . X o % * u e w w q q , 7 - 7 - % , 5 5 q e 0 0 q ",
"- - 0 0 5 - = 5 - = - - - 2 2 2 u / @.@.*.F j u 2 * 4 4 K 4.<.' ' ! F v 3 2 % X o o % 1 e w w w w w - % % % = % - 5 2 5 5 5 9 5 ",
"a w l w 5 % = , , ; ; - 2 0 j n j H *.X.` n j u * < v m ' y.w.2.P H P / u < % o X % % 0 2 - 2 5 q 5 % # % % % % & - % - w 0 e w ",
"j a l h w = = 5 9 2 ; - 5 2 u j L / P P E L n j 2 < v _ ^ ' 8.t./ H P J v v % . # % % u 0 0 6 5 0 0 5 ; 1 5 $ $ 5 - 5 u b L ` / ",
"F l a a w - = q q ; - - - * 2 0 j T O.v P / F u 3 u v u u H ' } 2.P ^ / ^ a = X X % 5 H #.[ L F A l u u 6 2 6 w a j G ' O.P } @.",
"L j a a p , - 5 9 ; % % 2 - - 0 0 F $.J E E P v v K 4 4 r _ | -.4.*.n ) U p = # + 5 E >./ ' H H ^ O.' n b j 5 w u j ` 3.} J } *.",
"Q G a j a , q 9 ; - & * 2 5 - w u n _ m @./ m n F P K t x _ 8.-.P n u j p k : @ = p 9.&.*.@.' K } :.O.n j b 5 5 u ` $.:.:._ } N ",
"$.L u l 9 % p q 9 ; % % 5 a 0 2 5 u F P @.H J H ' H H P ~ } } ~ v u n w 5 p : X @ q ,.>.@.' _ ~ ' *.{ P S s w 6 5 E _  .} } ) P ",
"F 2 * a q - k p q , & * y a 0 - 0 u P @.:.L ' / H P / 2.-.@.[ B / ^ l a q p # X # d -.#.E @.K _ / *.@.H s a 8 1 - a 3.4._ $.T v ",
"y 5 % i 5 7 a i q = % 1 5 5 8 6 u v m 2.F S ) H E O./ } 3.*.~ B ' v s a p w # X # q M c M ^ ^ %.} 2.` l u u w q > w ..7.' ' B w ",
"; w w j 5 - w 5 5 5 - $ 5 w l a 0 s y F 0 s b u m Y P _ X.Y ' E / u j w p p = X o e M K _ ] #.<.%.O.O.j a u p w 9 w E &./ P n 5 ",
"* 0 5 a q - q p p i 5 * l Z A l a S j u 6 0 y u l E ` H _ n j s l n u 0 z l % X # w :.[ _ @.*._ %.T j u h l l p 5 - j E n n a % ",
"a l e u 9 5 5 w w w 5 6 j ) U G A A A l n n l j l l n u r 0 w a a w j n a p # # - A $.Q / ' @.' ' T j a u h a p 5 * u L A A A i ",
"9 5 9 w 5 9 , = = q 5 y A C C l A l l a a a a a y z a t 4 t a p q 5 p A k w % X - H L L 9.0.&.} O.E F u 9 5 w q - O 5 j a w 7 5 ",
"- # - , - = # + = > - q 7 5 w l z h a e q , ; 9 ; , 5 q 4 z p i p p k i a 5 & # = w a A D ..Q P U A n 0 w w w 5 5 o - a w > - 7 ",
"k p q - = = % # % # % - - , , w w 5 = = % % % # X # = % # % = # # : : = = % # # % 5 5 q w l k a a w S w w 5 - 5 5 & - 5 5 q k V ",
"p q 9 5 9 5 - = = = > - = 5 5 5 5 5 - , # # % # # # # X # X X X X   @ @ # X # O o + + o # = , q j A G u w 8 5 - , & - , w p p i ",
"q 9 , q q 9 - & % = = = - 5 , , 5 , & = = - = = % % = = = # o # # @ = # o % + % # o X o # = > 5 h l n w 5 - 5 , , % 5 q w a d q ",
", ; - ; ; 5 ; = = - - - % - 5 , ; 5 - - = & 5 , 5 , w ..C q w q d q w 5 % - % % % % o # # = = - 0 a j w 6 5 5 5 = - 0 w 0 l 5 = ",
"= % & % - 5 2 - 2 5 & - % % - - - * - 5 5 5 e a A G U @.E / *./ S u 0 n 5 % # % * % % O % , = = 2 0 j j u 5 5 7 % % * 5 5 5 - % ",
"* % * * 9 u e e j l 2 * * % 9 j a u l E Q G ) ) X.+.Q G Q >.e.*.F 0 6 l a 5 # # % & - - - , , ; 5 0 j 0 2 0 w - % % 1 0 6 * $ 1 ",
"y 5 0 0 j j a u j m u 2 * * e F P H E Y ) F L ) @.*.P v / *.5.Y E S u l a w % - % % 5 w l A l a b w 0 2 * - - 5 % O 2 j j b b l ",
") L F l F n F j n A u 0 1 2 j H P K ^ / L H m J ) / P O.2.:.F ` L y j n h p % = # o & u u F n n n u 0 5 * % 9 , - % 5 u / / { ` ",
"` *.` E L F l A n n 0 0 n F F H T _ ^ T H P v j H H ` O.F n u u v u n b h a - = % - * u u L H L F A a a w l w q w 5 0 j O.' / S ",
"} %.$.' @.E j a a 0 2 5 n j S P T } B P / O.n n u j J j 0 u 2 0 u 0 u l A A w , - - - a N H T T P ' ` U U l w q w 5 0 n ` / ' / ",
"@._ T ' @.Q k q 5 - = ; y 0 b P P { B L ` ` m 0 1 n j 0 0 w 2 - 6 a l G C l w 5 , , - j L H J P P @.) ) / Q a w w 5 5 F L H H _ ",
"P ^ { ' / Q k , > = = , j j b O.' L F A L F j 0 2 j u 2 - - 0 0 7 l A I l w , 5 , 5 - 9 n n L L N E T L A G a e w 2 6 L H ' _ P ",
"P / ' ' 6.o.l % # % , , j j L T E n n l R F a w 2 0 2 * - 5 u a 5 w V ` C 5 , 5 5 - % - 0 j H B m J F L n D a e w - 0 *.@.P m m ",
"M P N P E G p = # = - - j u v L U F j u F b w & % % % - 2 2 w a 5 5 l n j 7 - = - % % - 0 u P E n L L F j A h a e 2 0 5.*.^ 6._ ",
"c K [ / E F q # # # % - w u n P U F 0 w z u 6 % % % & * * 5 a u w 5 s l u q > - = - - * 0 u P ) / ` _ ` n U j a u 0 u 0.4.' r.#.",
"M M ` ` H a 5 # o o % * 0 u G H l l 0 u i 5 - % = = % - 0 0 u u w 5 a s 0 i > , = = & 2 u u P / ` O.@.} ` P A j u 2 u 3.q.' q.-.",
"! c _ ' F l q X X # % 2 a a a a w w q w w 5 % # % = 5 q y y e w 8 6 5 5 w - = , = - , w a h v m ` *.*.>.2.B n u w 0 0 @.} ) w.1.",
"/ H B m u a - . X o % * a e e w q q , 7 - 7 - = , 5 5 q e 0 0 q - 5 5 5 5 - % , - = = & - 2 0 0 N ` K ' @.v g f y 2 u m m H *.@.",
"' ! F v 3 2 % X o o % 1 e w w w w w - % % % - % - 5 1 5 5 5 9 5 - - 0 0 5 - = 9 - = - - - 2 2 2 u / @.@.*.F j u 2 * 4 y K 4.<.' ",
"P H P / u < % X X % % 0 2 - 2 5 q 5 % # % % % % $ - % - w 0 e w a w l w 5 % = , , ; ; - 2 0 j n j H *.X.` n j u * < v m ' y.w.2.",
"/ H P J v v # . # % % y 0 0 6 5 0 0 5 2 2 5 - $ 5 1 5 u n L ` / j a l h w = = 5 9 2 ; - 5 2 u j L E P P E L n j 2 < v _ ^ [ 8.t.",
"2.P ^ / ^ a = X X % 5 F #.[ L F A l u u 6 5 6 w j j L ' O.K } @.F l a a w - = q q ; - - - * 2 0 j T O.v P / F u 3 u v u u H ' } ",
"4.*.n ) U p = # + 5 Q >./ ' H H ^ O.' n n j 5 w u j ` 3.} J } $.L j a a p , - 5 9 ; % % 2 - - 0 0 F $.J E E P v v K 4 4 r _ | -.",
"P m u j p k : @ = p 9.*.*.@.' K } :.O.n j b 5 5 y ) $.:.:._ } N Q G a j a , q 9 ; - & * 2 5 - w u n _ m @./ m n N P K t x _ 8.-.",
"v u n w 5 p : X @ q ,.>.@.' _ ~ ' *.{ L A s w 6 5 Y _  .} } ( P $.L u l 9 % p q 9 ; % % 2 u 0 2 5 u F P @.H J H _ H H K ~ } } ~ ",
"( ^ l a q p # X # d -.#.E @.K ( / *.O.F s a 8 1 - a 3.4._ $.T v S 1 * a q - k p q , = * y a 0 - 0 u P @.:.L ' / H P / 2.-.@.[ B "
};
