/* XPM */
static char *brick[] = {
/* columns rows colors chars-per-pixel */
"64 64 239 2 ",
"   c #503A38",
".  c #763A2E",
"X  c #53433D",
"o  c #6A443B",
"O  c #7A473B",
"+  c #584C4A",
"@  c #5D534E",
"#  c #4D5153",
"$  c #595757",
"%  c #674A47",
"&  c #744B43",
"*  c #7C4B43",
"=  c #784C48",
"-  c #68534C",
";  c #7C5144",
":  c #73534C",
">  c #7C534C",
",  c #78584C",
"<  c #6E4F50",
"1  c #6A5452",
"2  c #645956",
"3  c #6D5B54",
"4  c #6C5C5B",
"5  c #745452",
"6  c #7B5552",
"7  c #745A54",
"8  c #7B5B54",
"9  c #745D5B",
"0  c #6A615D",
"q  c #7B6457",
"w  c #74635D",
"e  c #7C635D",
"r  c #5A5D63",
"t  c #745F61",
"y  c #5D6565",
"u  c #686765",
"i  c #6E6D6C",
"p  c #756564",
"a  c #7B6563",
"s  c #756966",
"d  c #726C6B",
"f  c #7C6B6A",
"g  c #78726E",
"h  c #6A6E72",
"j  c #766F70",
"k  c #6C7777",
"l  c #747375",
"z  c #7A7877",
"x  c #737C7C",
"c  c #7C7C7C",
"v  c #942A0F",
"b  c #992E11",
"n  c #9A3317",
"m  c #A43B1D",
"M  c #8A3B29",
"N  c #8C3D2B",
"B  c #943923",
"V  c #9C3A24",
"C  c #953D2A",
"Z  c #9A3D2A",
"A  c #8C3E31",
"S  c #A33B25",
"D  c #8D412C",
"F  c #93432C",
"G  c #9B472B",
"H  c #9C432C",
"J  c #874537",
"K  c #8C4433",
"L  c #8C4936",
"P  c #844A3D",
"I  c #8C4B3B",
"U  c #934533",
"Y  c #9B4433",
"T  c #944A34",
"R  c #9B4C34",
"E  c #964639",
"W  c #934C3B",
"Q  c #9B4C3B",
"!  c #87503F",
"~  c #94513E",
"^  c #9B523D",
"/  c #9B583F",
"(  c #A6452A",
")  c #A14C33",
"_  c #A24838",
"`  c #A3543B",
"'  c #B15137",
"]  c #844D43",
"[  c #8C4D42",
"{  c #884E4B",
"}  c #934D42",
"|  c #974E44",
" . c #835145",
".. c #8C5245",
"X. c #8B5A47",
"o. c #84544B",
"O. c #8C554B",
"+. c #855A4C",
"@. c #8D594D",
"#. c #945344",
"$. c #9B5443",
"%. c #955943",
"&. c #9C5A45",
"*. c #93554A",
"=. c #9B564B",
"-. c #945A4D",
";. c #9C5B4C",
":. c #874F51",
">. c #8A5653",
",. c #855A54",
"<. c #845D5A",
"1. c #8C5D5B",
"2. c #975552",
"3. c #945C53",
"4. c #9B5D52",
"5. c #945E59",
"6. c #A44F43",
"7. c #A45746",
"8. c #A35D4B",
"9. c #A35D54",
"0. c #97634A",
"q. c #9C654C",
"w. c #846254",
"e. c #8F6752",
"r. c #8C6355",
"t. c #84635C",
"y. c #89695C",
"u. c #946254",
"i. c #9C6254",
"p. c #956A55",
"a. c #9A6C54",
"s. c #93635C",
"d. c #9A655B",
"f. c #936B5C",
"g. c #9B6B5C",
"h. c #A6674B",
"j. c #A2624C",
"k. c #A36252",
"l. c #A56859",
"z. c #AD7057",
"x. c #8D5E60",
"c. c #846563",
"v. c #8A6462",
"b. c #846A64",
"n. c #8C6A64",
"m. c #88676A",
"M. c #856D6B",
"N. c #8B6D6B",
"B. c #936461",
"V. c #946A63",
"C. c #9B6C62",
"Z. c #926E6A",
"A. c #9B6968",
"S. c #85726B",
"D. c #8C726B",
"F. c #9A7267",
"G. c #93726C",
"H. c #896E71",
"J. c #906E71",
"K. c #847473",
"L. c #8B7573",
"P. c #847A75",
"I. c #88777A",
"U. c #837C7B",
"Y. c #8B7B7A",
"T. c #937573",
"R. c #937A75",
"E. c #9B7976",
"W. c #937C7B",
"Q. c #A36C65",
"!. c #A47466",
"~. c #A2736B",
"^. c #A77A76",
"/. c #6F817D",
"(. c #7A827E",
"). c #81827E",
"_. c #8C817D",
"`. c #93817D",
"'. c #9C837E",
"]. c #AE8373",
"[. c #6F7781",
"{. c #787C82",
"}. c #867E81",
"|. c #967E81",
" X c #6F858F",
".X c #768384",
"XX c #7C8484",
"oX c #7C858A",
"OX c #798988",
"+X c #7D8B8C",
"@X c #7D8D91",
"#X c #7F9291",
"$X c #848384",
"%X c #8C8484",
"&X c #878887",
"*X c #848B8B",
"=X c #8B8C8C",
"-X c #938484",
";X c #998482",
":X c #948985",
">X c #938C8B",
",X c #988888",
"<X c #9B8C8B",
"1X c #87918E",
"2X c #97918E",
"3X c #848D91",
"4X c #8B8E91",
"5X c #978F92",
"6X c #859394",
"7X c #8C9393",
"8X c #899799",
"9X c #8C9B9C",
"0X c #939393",
"qX c #9B9393",
"wX c #989799",
"eX c #939B9C",
"rX c #9B9B9C",
"tX c #A28888",
"yX c #A49898",
"uX c #B09E9B",
"iX c #8EA09F",
"pX c #93A19F",
"aX c #8D9DA1",
"sX c #949DA1",
"dX c #9B9EA1",
"fX c #A29DA3",
"gX c #8CA1A5",
"hX c #95A2A4",
"jX c #9BA2A4",
"kX c #99A6AA",
"lX c #9CAAAB",
"zX c #9CACB1",
"xX c #A4A2A4",
"cX c #A8A7A9",
"vX c #A3ABAD",
"bX c #AFABAD",
"nX c #A8B3B6",
"mX c #B3B7BA",
"MX c #B0BFC3",
/* pixels */
"wX=X=XbXnXvXjXrX0XyXyXxXxXbXfXrXvXnXrXjXvXvXvXjXvXhXhXsXjX$X*XrXeXrXjXeX*Xl XXwXxXbXyXrXqXyXfXbXxX0X&XxXbXxXvXdXrXrXyXxXfXxXdXxX",
"t.y.u.;XdX;X;XR.K.L.R.W.Y.U.z i &XmX{.k {.[.l N.G.N.K.c 9X$ 7 q q f.t.t.r.7 &XyXs.3.3.O.3.Z.yX^.F., 8 c.f K.Z.q z 5Xv.s.s.i.^.'.",
"U #.;.D.4Xy.u.p.t.a K.L.z z h r x mX{.D.T.Z.y.u.s.x.1.z kXr 3 7 w.a.g.p.z.: XXR.R U U U | 1.-X^.F.o.-.*.[ #.#...L.:XI R N K K U ",
"R Q Q S.jXL.y.r.p.t.y.V.D.s u # x MXY.F.F.~.C.s.B.<.x.$XkXs w.a.p.g.F.g.p.2 *XD.T U U T #.9 ,X^.E.1.3.3.k.k.O *.R.%XL R F K K U ",
"W ^ W L.nXH.a 9 t.e t.D.t.w 3 @ (.mX=XV.^.~.B.<.1.B.1.%XzXV.j.z.z.p.q w.@.7 hX'.T U F W #.B.yX~.^.E.d.4.k.l.3.4.R.$XL R F G F F ",
"V.C.<.$XeX1 + # + $ 0 u 0 3 - - i vX7Xt.B.<.6 < 5 < < $XnXD.p.a.f.q 3 e q 3 7X;XW L K E #.<.&XT.n.,.O.o.] 3.i.<.:XrX* L U R #.-.",
"xXxX4X7X=Xd d d z ).0XwXwX0X0X=X0XeXrX$Xl U.$X*XXXXX*XvXmXxXfXxX4X*XeXvXeXXXXX*XP.K.M.M.Y.=XeX&X%X>X-X5X5X-X%X%XdXjX=XU.W.uXbXsX",
"0 w w c.c.q n.b.D.S.F.R.E.'.0X>X>XqXxXnXyX;XW.tXtXT.E.T.'.Z.n.M.v.<.U.lX,XM.n.a c.V.v.v.c.$X>XN.N.W.^.F.Z.Z.H.M.W.T.V.v.*X4Xl u ",
"- , +.@.u.@.j.0.j.0.j.q.q.p.U._.G.V.g.;Xy. .& 6 <.O.> +.<.> & 1 5 = K.lXs.;.;.O.-.4.4.4.;.K.M.W L K | [ O P O.o.* I U R S.$ + 1 ",
", @.i.i.a.q.0.j.j.q.q.j.a.w.c $XV.s.-.-. .....>.v.<.o.O.<.= & % < < P.jXg.;.-.-.@.>.d.l.s.>XK.#.W I [ *.*.;.-.3.O.*.#.$._.2 + , ",
"u.i.z.l.i.j.0.q.z.j.j.j.a.+.).%XC.-.;.;...~ ^ ~ ] ] [ W P * * & & % g eXd.8.q.i.4.-.3.* % .XM.7.&.> y.1.>.5.>.3.4...[ #.>X8 , o.",
"; +.@.+.+.@.8 , q.q.0.0.0.r.).XXR.G.R.qX'.E.~.!.F.E.T.n.D.L.D.D.g U.eXeXq , +.X.o.o O @ u .Xs &.@.5 <.y.<.<.8 6 * O ] <.7Xq o.> ",
"U.$X0X0X>X:X0X$XP.g S.Y.P.P.wXvXjXjX9XxXqX2X:X`.;X:X,XW.%XnXjX:X0XvXnXlX*Xl d x {.x XX#X9XhX$XK.%X%X=X>X>X$XU.s p Y.Y.l $X=X=X$X",
"L.Y.%X%X0X>XY.>X4Xc K.G.D.D.n.n.n.N.$XY.$.#.W T ^ ^ #.$.;.*XW.;.3.s.G.M.n.V.V.Z.N.0X=XL.L.:X:XW.Y.%X5XrX%XF.~.F.C.C.i.q.g.bXqXL.",
"r.y.s.y.s.B.,.;XwXc.>.-.-.*.o.>  .o.>XW.#.W I L W ^ #.$.+.7XY.;.#.;.;.@.3.k.i.9.;.S.n.Y Y Y W Q Q | s.=Xy.) ) ) ( ( ( ' ` _.S.o.",
"k.-.3.>.*.#.] '.5X3.@.-.-.@.O.@.o.> =XY.&.$.#.#.~ ~ $...q vXj ; ;.;.-.-.@.>.s.d.3.L.V.( ( U Y Y ) Y | %Xu.R G G G G ) R T P.G.;.",
"&.*.*.O.[ | ] U.%X@.-.;.*.o.o.O.o.5 c L.j.j.j.8.$.$...o 0 hX{.X * ;.-.4.i.d.s.5.3.L.C.( G Y 6.Y Y G _ `.s.Y G G V S ( G K >XZ.%.",
"#.#...I [ ] 7 &Xc 8 o.....o. . .> - l U.@.@.0.u.>.-.> 2 k 9XaXx u 2 , 5 8 <.1.,.6 U.G.Z Y ) Y Z N J U L.N.I U F F F F D O U.t.#.",
"s K.s p f s XXeXc c z K.z _.f g j j *X7X$Xc =X4X=X=X+XaXkXnXMXnXlXkX9X6XoXXXc l $XeX$X4 - 1 1 3 K.$X2 oX7Xz f d z s u d i XX$Xs ",
":X,X:X`.$X+Xc 4XU.$X0X>X%X0X0X6X7X0X>X>X,X:X$X7XlX%XL.U.c L.tX;XW.W.W.T.W.N.K.jXrXqX,X0XqX:X).>XqXjX+X8XaXhXeX0XxXxXyXuXqXqXqX%X",
"; [ W Y r.z ..&.#.O.$.$.$.O.>.9 t.s.8 O.-.-.= 7 c y.>.6 & ; ;.-.*.#.$.k.Q.Q.T.7Xs.*.*.<.>.4.3.4.3.K..Xh h i a a 9 n.9 v.6 >.>.= ",
"] | Q Y -.z ] G F K D D D K P O O <.n.@.>.-.@.+.$XB.4.>.> o.i.i.@.#.;.3.s.F.G.0X3.#...O.O.-.3.i.i.W.$X4 $ 4 > o.& 5 6 ; ] W U J ",
"4.=.R G y.U.P ` ) F N F R R T R W O.>.>.>.3.;.y.*XV.k.i.d.l.k.i.-.#.*.>.O.3.n.*Xu.&.@.-.>.>.s.s.d.W.$X1.1 : 6 <.; > >.o...;.-.*.",
"| W E U G.$XO 7.7.R F ^ ` $.$.` 7.i.T.c.3.3.>.y.=X9 & 3.z.z.<., ,.O.#.#.*.5.c.*Xr.-.O.3.i.4.3.5.1.Y.*Xv.<.<.> <.<.>.4.5.s.u.3.;.",
"9.l.F.g.T..Xb.Q.Q.i.#.l.d.d.V.s.i.l.^.,XF.Z.W.tX7Xh + - Z.b.$ 5 d.s.g.+.<.>.q x 2 > 8 8 w.t.r.8 w i h d L.T.N.V.C.C.~.^.].^.~.!.",
"qXrXrX0X7XeX0X0X0XqX=X=X=X%X%X%XU.%X0XeXsXjXkXzXsX9X8X@X6X*X6X3XjXjXeX3X6X6X9X6X+XsXhX8X7X8X7X9XaXhX9X9X6X6X0XxXfX*X*X0XrXrXqXqX",
"M.7X7Xl U.U.L.Y.U.U.c =XN.n.s.3.s.y.t.z 6X*X$X%XU.%X$X$Xh x vX>X:X:X:X>X=X$XeX+Xd >X=X%X%XeX$XT.W.%X$X=X}.j $XjX%Xa s 9 t.<.<.9 ",
"@.$XU.7 o.& O.;.,., y.>Xd.$.E U Y Q Q n.#Xu q n.V.F.p.f.y.l %X;.;.;.4.d.1.9 9X.X+ 8 7 u.i.Y.$Xo.*.-.>.3.-.@.:X%X..#.*.o.*.*.*.*.",
"s.0XT.-.-.& ..=...] > ).V.4.*.L U W Q -.+Xi f.C.V.!.].].g.b.:X*.>.s.s.B.v.a hXoX3 , r.p.i.W.=X*.$.;.;.;.;.4._.>X=.#.O.O.O.@.3.i.",
"s.>XL.i.i.O.8.#.6.Q O x N.2.*.[ U W _ $.x i y.p.p.p.!.].u.q K.8.9.3.5.s.s.c.lXc r.q.l.g.d.W.%X-.;.;.4.4.-.-.S.$X*.*.@.@.-.3.>.5.",
"q =XK.w.r.+. .#.[ P & *Xf { =.[ | | #.6 .Xy X X , % + p.0.q K.j.k.>.1.1.<.9 lX=Xq.q.q.u.>.U.%X3.-.4.i.i.3.4.M.).@.u.s.>.i.-.1.1.",
"=XXXc j i u u s u z 7X6Xx z ;XY.:X'.,XXX9X6Xh u $ y h XX=X&X*XS.P.U.*X*X*X7XlXeXP.P.U.j i 7X*X0 2 @ + @ + + y x c 0XqX>X,X>X=X4X",
"rX0X4X0X2XqXyX2XyX2X,X_.XXgX Xx =X,XqX7XeXeXaX=X$XXXXX=X$X%X:X=X*XjXbXxXsXaXoX3X4XeX7X3X3XsXhX7X7X*X=X*X$X$X=X=X*X*X3X7X0X0X>X2X",
"F.F.D.b.V.n.w.y.p.u.u.u.t.4XU.s i.k.;.#.#.&.g.i.j.+.r.8.#.#.$.$.<.dXqXn.B.v.>.<.<.5.3.s.1.Y.T.4.3.8.9.8.6.6.6._ =.*Xc F.C.~.~.Q.",
"n.V.c.q q w q q f.y.p.p.t.(.E.;.T R G D G G R ) R W R ` T R Q W P $X`.>.i.4.i.>.3.4.4.4.;.f.o.A A N C V N Z V S W .Xl d.V.n.V.g.",
"9 c.9 w q t.t.t.n.b.s b.q ).F.` R T G L T ) R ) R L T R T T W W 8 *X'.;.i.-.3.>.O.o.3.3.3.V.3.Z Z N N V V C V S W +Xz y.V.v.p.s.",
"5 <.p.F.F.F.n.u u u y r u 1XY.j.) R L L T ) ) ) ` W T R L I ; , k 9XE.j.;.;.*.3.3.3.3.3.3.c.$.S V n V V B C V S Y ).x @ 5 <.s.1.",
"1 4 b.b.s w u y y y h l .XjX0Xb.w., 2 2 e t.t.w.w.8 ! & u p l x @X6XM.r.-.;.3.y.y.y.v.1.1.9 P N N K O O : , O K J g 8X1X# @ w 0 ",
"+X6X6X6XpXpXhXpX9XiXhXlX6X@X6X+X6X6X7X8XaXhX9X9X9X6X*X*X8XaX9X+X8XhX+X6X+Xc XXXX*X+X3X*X7X$Xz P.g P.%X=X7XeX8X+XXXhXhXzX#Xk +X1X",
"*X*XU.Y.:X,X,X,X%X%X).8X*X`.F.G.R.`.*X7X=XjX*Xz Y.U.:X%X*X9X3X.X+Xc U.$X$X{.x =XjXrXqX%X=X%Xd.;.$.$.#.k.l.,X8Xc Y.W.Y.Y.L.b.L.;X",
"=Xn.-.-.;.;.;.;.-.-.N.eXV.g.z.j.q.;.u.i.q.>X}.5 6 ,.O.#.>.<.9 i x s.!.d.O.O.,.<.<.*.W L g u.( m n b b n m r.XXO.Q R U Y R ) Q $.",
">XC.6.&.O.-.-.4.i.=.v.sXf.r.u.z.-.! / ` j.0XoX,.9 o...[ W [ o.x x >.;.4.-.-.-.*.] #.| U S.;.V n n v v n V w.XX+.` Q W Q R R R ^ ",
"*Xp.^ $.;.-.*.;.;.#.y.8X4 t.g.z.&.^ ^ #.-.7XU.o.6 ; #.| | [ o.l +XM.d.s.3.4.3.3.4.*.[ L U.d.m n n v v n ( f.+X8 8.7.W $.$.P , 1 ",
".Xy.T I W W #...#.I p.kXa +.> ;  .$.#.~ #.4Xc , = * P I L L O 4 +Xa y.y.1.s.>.>.O.I P o.>Xg.m b v v v n F L.6X% o K O I #.K 8 l ",
"/.s q q w 0 w 3 q a :XkXU.p 2 y h M.Z.Z.Z.XX{.9 7 0 d d f 8 1 l +X%XY.L.T.T.v.9 t.8 & 2 0X`.+.; ; ; ; +.w (.+X/.y 2 3 4 8 , : p ",
"_.L.).c $X0XxX&X0X:X:X>X;X:X&X}.eXsX5X0XqX=X=X$X>X7X*XqXyX>XU.>X*XqX>X$XrXvX:XW.^.W.`.:XqX,X`.`.D.K._._.:X,X,X2X>X0X4X8X*Xz l %X",
"6.8.l.C.~.^.^.~.C.d.d.s.d.d.1.9 x y.-.*.-.;.;.;.u.d.s.d.3.3.y.s.d.i.+.; 9 0XC.$.Q _ ^ 4.N.W.k.;.#.-.4.;.;.j.W ^ k.l.u.%XL.| 4.;.",
"| ;.i.g.V.s.1.4.@.o.<.8 > <.1.9 $X*...*.$.$.$.....;.k.4.O.4.3.3.3.@.-.3.n.eXZ.4.*.W W O.<.c.V.$.^ R W Q R R N F ` 6.$.`.Z.U U W ",
"l.4.@.y.y.<.<.>. .; , , , <.i.c.*X..*.-.| Q ~ ......4.k.-.i.i.i.s.u.4.-.V.9XM.3.2.| Q O.,.o...U U F D F F F N N Y _ $.:Xv.C C W ",
"9.O.& > ,.o.o.{ O O o o & & 4.1.z -.8.-.$.#. .O ! ..-.9.4.3.i.k.3.4.4.{ 7 9Xz { *.| W O.o.[ U F F B B B B N N D C N T tXG.Y U | ",
":.{ 5 <.t.y.v.v.>.<.t.L.<.& <.M.*Xb.q 1 1 5 p f 9 4 1 1 5 5 , 7 7 9 9 2 u 9Xk 2 w b.q y.1.O.I I I I #.#.I I I J . O O Y.K.* { ,.",
"L.W.-XqX|.W.;XyXyX,XyXxXxX0XwX&X4XsXdXrXdXwXcXbXrXvXkX8XsX*XoX@X@X@X6X3X3XhXeX0XeX0X$X>XqXyXdX0X%X>XqX>X=X%X,X,X}.I.j a a f a c.",
"5.d.E.fXm.#.2.5.*.[ 2.3.1.b.cXJ.>.B.B.V.d.-.-.$.$.V.T.:X8Xb.s.N.K.Y.M.a K.=Xs.-.*.I W #.[ R.kXU.<.1.1.,.6 o.*.s.:XqXZ.8.8.8.6.6.",
"| 2.A.fXN.| 2.*.[ [ =.4.=.>.xX1.K Y ) Z V Z C G V V U V.oX7 #.-.3.;.;.;.R.%X| #.$.$.T U K L.kX9 o.>.>.O.O.[ W *.J.-X4.7.6.Y Y ) ",
"| 2.F.fXm.*.2.2.*.*.=.3.O.<.rXc.K Y ( B C F F Y Z G G C.@X9 $.;.=.;.;.-.D.{.#.~ -.i.I K K L.vX6 >.2.2.[ [ W L J J.;X8.6.) Z N A ",
"| { v.fXf [ 2.{ | $.=.*.O.9 3XZ.Q . . . . A U ) ) ) D G.jXM.$.=.;.4.-.-.n.c 7.j.&.&.W W L N.cX,.*.*.*.] [ I J O W.,X7.' S N . K ",
"9 5 a 5Xp ; = { O.O.3.3.B.4 XXB.O.<.V.s.O.I P I I P * L.kXz -.-.>.o.<.3.q c +.X.%.X.o.* & K.bX5 ] o.o.> o.o.<.,.,XyXB.4.>.<.c.s.",
"}.U.,XyX|.I.|.,X5X>XqXrXvX5X$X5X0XxXmXmXmXrX7X7X0X4X0XeXsX*X=X&X$Xc l h h +XXXl l x oX*X4XvXnXqX&X*X$X}.0X5XqX>X,X,XW.Y.K.U.rXxX",
"o.O.9.l.5.5.V.qX>Xf a s a 9 q K.K.M.L.%XW.Y.z 7XwXL.q t.T.S.M.N.C.!.C.N.u jXxXn.V.V.R.R.`.`.W.W.%X=X%X0X7Xy.*.#.I K K I P I b.8X",
"O.W Q U K | 3.5X%Xo.*  .* > >.<.6 * o.<.& o % +XW.$.#.#.$.#.&.$.[ 7.8.;.i.:X:XW W K L T W ..*.#.>.v.s.yX0X[ I K A D F L I I s @X",
"* #.Q Q Q 8.3.5XK.O P ~  .@.u.s.5.@.o.> & o % *XtX6.$.=...#.;.;. .*.*.;.;.R.M.W W I P K L I ^ | *.>.5.qX=X] ~ I I P J I ~ O _.aX",
"  . ~ ^ W =.l.yXU.* O P  ...O.l.Q.d.y.<.* O o =XtX#.#.=.o.O.;.O.o o.3.3.*.;XR.` $.#.~ L W Q T I ] ] *.qX$X..7.~ ^ W L W O X XXgX",
"k $ + % O . O :X:Xo.O.O.......*.O.3.s.y.] O & 0XY.| #.P ] O.3. .O >.5.; & Y.K.%.&.` / I I ..P L I o.5 qX0X& P &.&.-.....> $ x 8X",
"zXeX+X.X{.l l 0X=Xp w 9 q T.E.T.T.T.E.|.|.G.M.*X%XT.T.T.W.tXtXW.W.,X:X9 t $XXX0 2 D.s 9 p K.M.8 q U.$XrXjX$Xs Y.K.K.:X%X0X+X7XlX"
};
