/* XPM */
static char *bricks[] = {
/* columns rows colors chars-per-pixel */
"64 64 43 1 ",
"  c #2E271E",
". c #352D23",
"X c #373026",
"o c #393126",
"O c #3D3529",
"+ c #3F382C",
"@ c #40372B",
"# c #42392D",
"$ c #483F31",
"% c #464032",
"& c #4D4334",
"* c #534738",
"= c #564A3A",
"- c #5A4E3C",
"; c #5D513F",
": c #584F40",
"> c #5E5341",
", c #625542",
"< c #695B46",
"1 c #6B5C47",
"2 c #675D48",
"3 c #6B5D48",
"4 c #6F604B",
"5 c #72634D",
"6 c #6F6550",
"7 c #726652",
"8 c #786650",
"9 c #756952",
"0 c #7E6C54",
"q c #7E6F58",
"w c #7F7057",
"e c #826F56",
"r c #807057",
"t c #807158",
"y c #87775D",
"u c #89775D",
"i c #8B795E",
"p c #877A60",
"a c #8E7E62",
"s c #917E62",
"d c #8E8165",
"f c #938265",
"g c #928269",
/* pixels */
".oOOoOOOo.oO###++OOO#OO+&##Oo.. .OO#OOOOO+##Ooo.o.ooOOO#OOO#OO+#",
"o=--=-;--=----=OO==>,;>><>=*=*&oO=;>-=*===;;-=&oo*->>-====;;;=*O",
"#,,,<<<<<53<,,>#O-,473<<4<;---;@#-<<<,->,3<<<,-#O;277<3,3<543-=o",
"o=,0tut0etu80<,#O-3agtttar077;-@#-30ue855tii0<-OO,5fat0etuatu,-o",
".*;80te00ti00<,##;3ta0ttie007,-O#;5ett055tiiw3-##,<utt0ifaat0,-@",
".&-,,<,,<45<<>;O#->34<<<3<<433,##,5535<,-<<3<<;+O=;<<,;<543,<--@",
".&----;;>>,;,-=O#-=-===;;;;>,<>##-;=*-=;=;=;;,-oO&->,===>---==*@",
".o###OOO+OOO###OO###+OOoO##$$$#OOOOooOO#O@O@##O..O###OOO@O@OOOO.",
"oO@#@#O..O@@#O##&&$+ooOXO##O###O#@o..OOOO@###@o.o#&$###oo##OOOOO",
"-;>,->=Oo*-=>->><2<,>=*o+-;=->>-;---;==Xo*;;,;=*=;;;;,-@@--===--",
";,<3,,;#O=,<3<<23343<-=O$<3,<34343435,=oO-,,33,,,,<<3,;O#-,,<<35",
"tutue,;#O&-0fate50ett,=O$<30uiafaiuui<=oo-,0uitee0w00,;OO=,0uuis",
"et0t0,=OO&=0sfsu850r0,=O#<40uuafpttiu<-##,,70uiutettt<,OO=,0euui",
"54,<3,;OO&-<5534<<,<<;=O#;>,<3593--,<,,$#,<<<3553<<<4<>Oo=;<<<<3",
",;=-;;*.o&=--=-;;;;->-*OO-=-;,>>*&&-;,-#@=-==-,,>;>,,,-OO=--=---",
"##@###+.oOO#Oo.OOO####O.oOO+####o.oO#$#OoO##@####$$###@XoO#OOOO#",
".O+###OOO#O#OOo..O@@@#OOO$##O##o.oO###OOOOOO@OOoO$####OoO+##+O#O",
"o-,>><,,,,----*oo*-->,>-->>-=>;#o&=>;:===-;=-=*O+>>>;-=&*-,>-=-#",
"O-,<<4<3354463>O#;<<<433342<,,>$#--<3<2,<;<,,-*O@;,,,,<,<4573<,$",
"O>>00aiaiitap4,@#,5ifaitu0tet3>#@;<0r0w0q0tt0-&O#,<0trttttuie3;#",
"O-;55000tuifa4>O#,5faauuutttr<,##,<500att0tat,*oO=<0iettiuuut5,#",
"O-,,333<3,,<3,-O@>49942,3<,-,3,+O-,,;,,<,,475;*oO=,57<,;<<<<<3>#",
"O=;-,;-*=*--;-&.o=;>>>-;>,-*=--#O=-==--;;-,,,-*Oo&*->==&---->,-O",
"oOOO##OoooO###OO.OOO+#####OOoO#OoO##OOOOOOOOOooo.o.OOOOoOOO###Oo",
"#OooO#O..O#$##O+oOooo##+O#O#OO#@#####O#OOO#OOOO#Oo.oOOO.XO###O##",
"=-=*=-=OO-;,><<<;;=-->;#O=-;-;---;>-==-OO*-;----===-,,-OO*==--,,",
"<<<,,<;#O>394743<<<,;--OO-><33<,,<43<>>#@-3074<<,,<573,@O=><4355",
"tr003,=Oo=<iiaiititt0,-OO=,tsitr00r00,,#O-,aase050tat3>#O*,taaif",
"ft553,=Oo=3iaattttt05>;OO=<euuuarw0it3,#O-,aaatr005e0,=OO*,wttru",
"4,-;,<>#O-,3<,,<<433<<,OO=,<<<<3,>-345<$O==<<554<<,,,,=OO*-;,,<5",
";--=>,>##-;;--=;-;;;--*.o*--**=;==*;-<;#o&=>,,,,>;==-;-Oo&=====-",
"OOOO##$OOOooOOoOOO###OO..o#Oo.XXoOOOo++O..OO###OO######o.oO#oooO",
".oOoOO##$+ooOOOXoOO#+Oo.ooOOo.X.oO##OOO+O##O+##.oO#####OOO##Oo..",
"o*=&=-,><>-&***OO==>-;-*==-=*&&oO-<<>-==-;-=-==oO*,>>;,--=;,;=&o",
"#-;;3594543,<,-Oo==<<<<,<;,--**O#>7994<<34433,-O#-,,35534<3<5<-O",
"$;<5ttaiut090<;OO-,0ttuut055<-=##,7tt0550tiit,-O#;30isfiu0uuu5,#",
"$-<30wtu005503-OO*>5eeuui0955;=O#>3rte554tuit<-##,3tfffte80e03;O",
"O=,,,,<4<,-,,,-OO=,<3<3<3,<<33;#O-,,<,--=,<3<-=##,,554<,,,,<,3-O",
".$*-;;;-===-=-=OO*-----;,;,>>;=oo*--,;-*$&=;>-=O#--;,>=-=*&*=>=O",
"  .O@###O+OOOoOOOO###@O###$$$#OoXO#O@O@o..O####OOO@OOOO+OOOOO#Oo",
"...oO##OO##OOO##O###OOooo#####O#O+OOO##oXX+O###O@@##@#$#OO@O@OOo",
"-*$&*=-##>>>;-;;;,>>--*OO;>>>,;>;;-=;>>O#=>=;>>-->,;-;=OO=;;---=",
",,;,,,;##,<555<334<,;;-##>,,,<,<,<<<342##,<,<33,,<<,,<,Oo*-,,,,,",
"ir9e0,-@#>3ufsiaiaut5;-@#,<00005rusai5,##,30e00r0ee05;=Oo=-50etr",
"attiu<-O#,<tafaiuaut5,-##;<80800eusft4;O#,5tt00etuie8,-#O=-50tit",
"533<53;OO-,,354<,<<<,>-#O=,<<,33<<499<-O#;<,,,,3343,,--OO-;<<355",
"--;=>;=.o*===;;*=-=-*-=OO*>-==-;==>><-*.O=---,--->;-->;#O*-;;;,<",
"OOOoOOO..oOOOOOoOOOOO#OooO#OOO###O+####OO######OoOOOoO#Ooo@@OoO#",
"oOOo..o.OO##OOO.oO$####O@#$#OOo..o##OoOOOO###$O..O#OOoOOOoOoo.o.",
"O=-=**====;,--&oO=<>,--=-;<,,==OO&=---->;>--->*oO=>==&=;=**===&o",
"O;,<,,<,<,<<,-*O#>43733,<3553<;Oo=><3<<,,,,,,,*o#>4<<;<3<,;<3<-o",
"#>,00iur00rt5-&oO-3eaattttetu5,#+-,eiatttite5-*.O=<0tttt0eriu5,#",
"#,<00isu00tu0-&.o-30iiatttett3;+O=<0tt000isat;=oO=,tit000ttu03>#",
"#,<,,<<,,<33<-* .&,,<,,,,,,,<;;O#=,,<,,,<5553,=Oo=>344,--,<<<,;#",
"O====-;;;>----*..&==*=*==;;==*-O#=>==***=->,>;*oo=>,<>-==*=--=*o",
".oOOOOOO@#OOOOO..oOOO#O@O@@OOO#O+#$OOoooO###O#Ooo@#####@ooO#Ooo.",
"OOO#O@Ooo@@OO@OOOOOOOOOoo@###OO#%&#OOOOXO######@#######o.o#@O.oo",
"*-,,;=&oO*-======->>--=O@-,,>==;>>-->;=O#,,2>,;,;-===--+O*,--***",
",<35,-*O@=>,<<<<<333,;&oO-,334343<<34<-O#<47453553,,;<>##=,,<,,,",
"40t05-=OO-,8ttteuuaie,=OO=,0taddttust<-OO-4agaaist055<>$#-,70e00",
"00t55,-##>,0e0e0uttte<=Oo-<wtaaftaift;*.O=3taasuttw073,$#,<e0t55",
"<,<;3<,##,,,,<<,3<4<<,-@@<44<334<5553;*..&><33<<<<3<<,<$$,,,,3<;",
"-=--,,;@O-;-*===;>,>;;=O@><;--;,>>;,>=&..&-;--=-=-;==;,##=;;>,>-",
"oO##$##oXOOOO@O@######OOO##OOO#$##@###Oo.oO#+Oo@###OO#$OOoOO##&#"
};
