/* XPM */
static char *dirt[] = {
/* columns rows colors chars-per-pixel */
"64 64 84 1 ",
"  c #4F3311",
". c #523614",
"X c #563816",
"o c #5B3A15",
"O c #573B1A",
"+ c #5C3D1A",
"@ c #613E15",
"# c #603F19",
"$ c #5F401D",
"% c #644117",
"& c #6E4516",
"* c #63421C",
"= c #6A461B",
"- c #6D491E",
"; c #704614",
": c #744916",
"> c #794C16",
", c #734B1C",
"< c #7A4E1B",
"1 c #7C511D",
"2 c #5E4324",
"3 c #644521",
"4 c #684721",
"5 c #664926",
"6 c #674A28",
"7 c #6C4D29",
"8 c #724D23",
"9 c #784F20",
"0 c #714F2A",
"q c #6D502E",
"w c #765125",
"e c #74522B",
"r c #7B562A",
"t c #7D592C",
"y c #715431",
"u c #785731",
"i c #7C5A33",
"p c #88571D",
"a c #8A581E",
"s c #905C1E",
"d c #825623",
"f c #885720",
"g c #8B5B24",
"h c #815728",
"j c #835B2B",
"k c #8A5E2B",
"l c #905E24",
"z c #835E32",
"x c #885E30",
"c c #8E612D",
"v c #946125",
"b c #986427",
"n c #93642D",
"m c #9A662A",
"M c #97682F",
"N c #9C692E",
"B c #856035",
"V c #876338",
"C c #8C663A",
"Z c #8F693C",
"A c #956935",
"S c #9B6D37",
"D c #9E6F37",
"F c #946B39",
"G c #916A3C",
"H c #986F3F",
"J c #9C713F",
"K c #A16F36",
"L c #A07038",
"P c #A0703A",
"I c #A0733F",
"U c #AA773D",
"Y c #956D40",
"T c #997143",
"R c #A07546",
"E c #A67A46",
"W c #AB7A42",
"Q c #A77B48",
"! c #AC7E4A",
"~ c #B07D43",
"^ c #AF8046",
"/ c #AF814B",
"( c #B78243",
") c #B58349",
/* pixels */
"TiizGir235752ejknj+wwwgd#1aap<>;&p<<,,p-,dw+w$kcc33IVVIWEIGiCTER",
"//ETHqzieAIArjk58hwkngd=Xpggs<&>:><pp,,1*+*8k88333wI77AHEIJ7eT!!",
"QRCREiiWVHISVt3rrh8gvh1*.p<aa&o><&ppap@@=*,nnwwhnAjSjrAGJHC7yE!E",
"ZVeiCCVWtHSHewO58=*whww-op@pp<o:,.pppp@,=whnkjknKSSGSjGVBeBCiGGY",
"VBeVCCBH0HAAe584=+.+=9w<o= <p1o@:.pp<=@o.X+*8wcNAAkjGjHHziRCCGzC",
"CiqTTHGe5GSVtjcnncd*+*hd**X=p1o@%.oo X,g1,=X.O8wrnGSGVJIzVTCCi7i",
"Ju37uVVVBr53jKAcnNw*,,hw,o,=@@.*ppp1=<plggg=*5wwjjcGAVHHziGBVieB",
"HCVzeW~IIAeeAAAcncw-89dw<X1p,@%,glvggdlvgh,,gnkwjrkcj85rVVHWW)rI",
"HGGV5GHIIIj5jGAcck-8hwwdwodlv=*wgvlggglghw-gmnNcn8$3335rzAGVee7V",
"IAAG5HHGGScekcjjknddnghw=Xdvg*+dggghghhdhw9nnnkkkncj3jSUAzer7er5",
"V7rz5VVVAjrkncw*8hdggg9,**gml,*wlggw9*,<=*-nncjwrccAVrVSVrHIJHG7",
"V0zGjVVte3VSSScwkkhwgghw+=wn8-*++*=d=Owdw**gkkjjjnAnAAeje3VSHHV5",
"3eAVVAGj5wAGSScrnnjwkngw+*wc,**dhw8d+*nNkw8www$O5cnkrVVSAjteeVe2",
"VkjjAGnk8ecAVVc3tchwjkh-+5*k8$8kjw8*.dNNcddhjh8*tkcjwjkAcjj5eV55",
"rrjjVAnnrjnAkjn3kj8$wnnh8wwj858kncw$+8knkkh8*w83jAAc5553*3333rkj",
"jjrrcrjjjcrjnkjwr8*Ojnnnkjjc4d3jccw**55kkkwhwckrw33rr*wrkcjw3j5c",
"jkw335w4jkwnnr3wrcj5jjknjknn8c3ckkr543+jnnwjwccjwkjcw8wcnnMncr8n",
"jh8**8w*8kjjjj8nccjjjcn8rjnc5n334r3O8w5knjwjwkcnwkncj8*kcNnwwchj",
"$5wjwOw5+**3wjwNckjj5ww$VcGk5jw3tVttcct335j8jjjkrjjck5*5wwn85kw+",
"wknk8.wgd**$*c*wwwjr3jc3SVAjjSIj8rjAAGArekn5rjjjkww*++*8-*k*+88*",
"knNn*Xdnnnh*+k8wr585rGc3jAAIIIUIj55SAGrj5rkr35jSnw3$*-dg8+*-wwdw",
"glnh+=gmmd-*+588w5jcJII38SAU(UUGt53VjV5ejGASjwnnnc**gggw8+,ddwhw",
"hh,=X,gmnw*****ww55nASG75HjH~UIH7t5VzVrjzGIGwwjckc**hngwddgww1w9",
"9w-o.,gbvh=wkckkr33ejxzr775VGIGH3e3555r5rGIV58rjj8+wwggdwdd<-*=d",
"*dg,o,dhgg8wknnkk*3rVSj57zzzBt672iiezeV77SSVjGSj4*+++*=w<,*oo.X#",
"=gv1@<w1dd++hnk5+3jAjVzrViVteHVirJJJIGRz7HSAcGSkwdknd*ooXoo@oXXo",
"%1pp==o1gl,*kh85*3kGGVe0G^WRBCJGGGGHRHJz3jVVAGAc5wnnkgd,,<=<p=%*",
"oppp<o@ggdd-*8+*w3kAGjr5zWE)C77iGERWWRue555jVAcc3*knnh,o,pp1p1<a",
".<papoo1dddw+4$333AASV75eJHEHieizZREET7zGJGSj558**888h=ogppppp&<",
"o%pp1oX<dwd=88wwjrSj5353iJGGGETi7yCyeq3tGIJHAjjrw5$*-n,-1&11<&o@",
"@oo...X1hwg*8wjckr5e55t7re7zZyyyqyETCiu5GIIHeVrjjh8***#**.ooooo@",
":@@,,%o,d9g+**jck35VIIIRRBzCC7qiiyiiBCi7HHGH3Vrjjj3lkghw**@o.o@:",
";p<1,,d-8dw+w$kcc33IVVIWWRGiCTERTiizGir237772ejkcj+wwwgd*1aap<>;",
">><pp,,1*+*,k88*338I77AJEIJ7eT!!//ETHqzieAIArjk55hwkchd-Xpaas<&>",
">&ppap@@=*,nnwwhcnjSzrAGJHC7yE!EQRCRWiiWVHISVt3rrh8gch1*.p<aa&o<",
": pppp@,=whnkjknKSSGSzGVBeBViGGYZVeiCCVWtHSHeeO58=*dhww-opopp<o,",
":.pp,&@o.X+*8wcNnAkjGjHHztTCCGzCVBeVCCBH0HAAe584=+.+=<w<o= <p1o@",
"%.oo X-g1,=X.O8wrnGSGVIIzVTCCi7iCiqTTHGe5GSVtjcnncd*o*hd**X=p1o@",
"ppp1=<plggg=*5wwjjcGAVHHziGBVieBJu27uVVVBe53jKAnnNw*,,hd,o,=@@.*",
"glvgpdlvgh,8gnkwjrkcj85eVVHW~(rIHCVzeW~IIAeeAAAcncw-8<dw<X1p,@*,",
"gvlggglghw,vmnNcn8$3337rzGGVee7VHGGA5GHIIIj5jAAcck58hwwdwoplv=*w",
"ggghghhdhw1mnnkkkncj3jHIAzer7er5IAAG5HHGGSVekkjjknddnghw=odvg*+d",
"lggw<*,<=*-nncjwrccAVrVGVrHIJHG7V7rj5VVVAjrkncw*8hdkgh9,**gmg,*w",
"+*=d=Owdw**gkkjjjnAAVVeje3cSHIV7V7jSjAVte3VSSScrkkhwghhw+=wn8-*+",
"hw8w+*nNkw8www$O5cnkrVVSAjteeVe23eAVVAGj5eAGSScrnnjwgnkw+*wc8**d",
"jw8*.dNNcddhjh8*jknjwjkAcjj5eV55VkjjAGAk8ecAVcc3tchwhkh-+5*k8$8k",
"nnw*+8knkkh5*w83jAnc555333333rkjrrjjVAnnrjnAkjA3kj8*wcnh8wwj858k",
"ncw4*55kkkwjwckww33rr*wrknjw3j5cjjrrcwhjjcrjnkjww8*Ojnnnkhjn4d*j",
"kkr543+jnnwjwccjwktcw8wcnnMnkr5njkw335w4jkwnnr3wrcj5jjknjknn8c3c",
"4r3O8w5knjwjwkcnwkccj8*kcNnwwkhjjh8**8d*8kjjjj8Accjjjcn8rjnc5n33",
"tVttcct335k8jjjkrjjck5*5wwn84kw+$5wjwOd5+**4wjwSckjj5wr$VcGk5jw3",
"8rjAAGArekn5rjjjkww*++*8-*g*+88*wknk8.wgd****c*wwwjr3jc3SVAjjSIj",
"j55SAGrj5rkr*5jNnw4**-dg8+*-wwdwknNn*Xdnmng*+k5wr585rGV3jAASIIUI",
"t53VjV5ejGASj8nnnn**hggw,#,ddwhwgknh+=gmnd-*+588w5jcJII38SAU(UUG",
"7t5VzVejzGIG8wjkkc**hmgwhdgww1w9hh,=X,gmnw*****ww55nASG75HjH~UIH",
"3e3555r5rGIV58rjj8$wwggdwdd<-*=d8w-o.,gbbh-wkckkr3*wjkzr075VGIGH",
"2ziezeV77HSVjGSj4*+++*=w<,=oo.X#*pg,o,dhgg8wknnkj34rVSj57zzzBt67",
"rJJJIGRz7HSAVGSkwwknd*ooooo@oXXo=gv1@<w1dd#+gnk5+3jAjVzrViVteHVi",
"GGHHRHJz5jAAAGAc5wnnkgd,,<=<p=%@%1pp==o1hl,*kh8533kGGVe0G^WRBCJG",
"GERWWRue555jVAcc3*kcnh,o,dp1p1<poppp<o@ggdd-*8+*w3kASjt5zWE)C77i",
"zZREET7zGJGSj5583*888h=ogfpppp&<.<papoo1dddw+4$433AASV75eJHEHiei",
"7yCyeq2tGIJIAjjrw5$*-n,-1=11<&o@o%pp1o.<dwd=88wwjrSj5353iJGGGETi",
"qyETCiu6GIIHecrjkh8***#**.ooooo@@oo....<hwg*8wjckr5e55t7re7zZyyy",
"iyiiBCi7HGGH3Vrjjj*lkghw**@o.o@::@@,:@o,d9g+**jck35VIIIIIBzCC7qi"
};
