/* XPM */
static char *tilledsoil[] = {
/* columns rows colors chars-per-pixel */
"64 64 173 2 ",
"   c #0E0904",
".  c #150D05",
"X  c #170F06",
"o  c #1C1206",
"O  c #1D1409",
"+  c #211507",
"@  c #271807",
"#  c #2A1A07",
"$  c #211609",
"%  c #2B1D0C",
"&  c #311F0A",
"*  c #261B10",
"=  c #2B1F11",
"-  c #2F200E",
";  c #34220D",
":  c #3A260E",
">  c #3F280F",
",  c #2D2111",
"<  c #342412",
"1  c #392712",
"2  c #372817",
"3  c #3E2D19",
"4  c #412A0E",
"5  c #4A2F0F",
"6  c #4F310E",
"7  c #51320E",
"8  c #492F10",
"9  c #422F19",
"0  c #473016",
"q  c #45311A",
"w  c #4C351B",
"e  c #4E381E",
"r  c #563916",
"t  c #5C3B15",
"y  c #503619",
"u  c #543A1B",
"i  c #5B3D1B",
"p  c #603F19",
"a  c #4D3921",
"s  c #553D22",
"d  c #583F22",
"f  c #5E401D",
"g  c #654117",
"h  c #6A4315",
"j  c #6B451A",
"k  c #6D491D",
"l  c #724715",
"z  c #734916",
"x  c #734B1C",
"c  c #7A4F1E",
"v  c #7C511E",
"b  c #5D4223",
"n  c #634522",
"m  c #694621",
"M  c #654825",
"N  c #634729",
"B  c #634829",
"V  c #6C4E2A",
"C  c #724D23",
"Z  c #6C512F",
"A  c #755125",
"S  c #74522B",
"D  c #7C562A",
"F  c #7D592E",
"G  c #795731",
"H  c #7D5A31",
"J  c #84541D",
"K  c #88561E",
"L  c #8C5A1F",
"P  c #995F1D",
"I  c #95601F",
"U  c #9D621E",
"Y  c #A0631F",
"T  c #825624",
"R  c #855926",
"E  c #8B5C24",
"W  c #805729",
"Q  c #835B2B",
"!  c #8B5E2A",
"~  c #935E22",
"^  c #835E34",
"/  c #8C602D",
"(  c #946126",
")  c #9B6424",
"_  c #93642C",
"`  c #9A662B",
"'  c #9C692D",
"]  c #876133",
"[  c #8F6638",
"{  c #936532",
"}  c #986730",
"|  c #956935",
" . c #9C6B33",
".. c #956B3B",
"X. c #9B6E39",
"o. c #9D713D",
"O. c #A16624",
"+. c #A56A23",
"@. c #AB6C23",
"#. c #A96F2B",
"$. c #A6702E",
"%. c #AC722D",
"&. c #B37226",
"*. c #BB7727",
"=. c #B3752D",
"-. c #B9772A",
";. c #BB7A2D",
":. c #A36E32",
">. c #A86F31",
",. c #A26F38",
"<. c #A47135",
"1. c #AF7837",
"2. c #A4733A",
"3. c #AB7639",
"4. c #AC793C",
"5. c #B27632",
"6. c #B47934",
"7. c #BA7C35",
"8. c #B47C3C",
"9. c #BA7F3B",
"0. c #C27A27",
"q. c #C17F32",
"w. c #976F40",
"e. c #9D7241",
"r. c #A37642",
"t. c #A67943",
"y. c #AC7C43",
"u. c #B17D41",
"i. c #BF8137",
"p. c #B7803E",
"a. c #BC813C",
"s. c #C58334",
"d. c #CA8534",
"f. c #C3843B",
"g. c #C88539",
"h. c #CB8A3D",
"j. c #D18936",
"k. c #D38F3E",
"l. c #D3903F",
"z. c #DB913B",
"x. c #B68245",
"c. c #BC8442",
"v. c #B5834A",
"b. c #BB8649",
"n. c #BD894C",
"m. c #BF8C52",
"M. c #C28642",
"N. c #C58A44",
"B. c #CD8D42",
"V. c #C88D4B",
"C. c #D18F43",
"Z. c #CC914E",
"A. c #D49143",
"S. c #D2944C",
"D. c #D6984F",
"F. c #DA9A4E",
"G. c #C28F52",
"H. c #CB9452",
"J. c #CB9457",
"K. c #D39752",
"L. c #DE9D51",
"P. c #D49D5A",
"I. c #DB9E59",
"U. c #E29C48",
"Y. c #E09F53",
"T. c #DBA05C",
"R. c #EFA857",
"E. c #E0A259",
"W. c #E6A65A",
"Q. c #ECAB5D",
"!. c #F0AA58",
"~. c #F4B264",
"^. c #F8B567",
/* pixels */
"] T.~.G.v.s * O S H [ F n i 9 9 / 9.A Q E f ; ; 9 x +.J x t 5 # h P P J g 4 + 4 #.=.%.g D D 9 i 1.Q n  .X.n 3 S n.Z.H.o.e...b 3 ",
"Z m.P.r.e.w $ $ ..c.u.[ V i 9 9 V :.Q R ( k : ; 4 v -.O.+.h & # l P @.U v t ; 0 x v x k R C ; ; f V V 1.u.S w V x.V.K.H S ^ a < ",
"w r.G.v.v.b = 2 Z.!.E.M. .S i 0 u _ ` ' ' D 9 ; ; x @.@.@.p # + z P +.P J r o + 0 r i D ` C 2 ; g ! { 1.8.V 2 s x.V.v.S S G 2 O ",
"a e.w.e.r.G 3 q 2.K.S.c.Q n 0 2 i E #.<.#.E 9 ; : v @.@.U p # o z @.@.P v 5 .   0 D ( #.=.D r 0 ! a.f.<.2.V 2 w [ ^ [ ^ ^ N < O ",
"B o.[ ....G 2 3 | D.D.c.S w < % i :.6.#.( k : % : j ) ) I p @ o z *.*.+.K 8 o o v ;.z.d.6.A 0 w Q 1.<.Q Q n 2 n ..H o.y...n < * ",
"H H.I.H.v.^ w 3 F V.L.:.V 0 % % V h.f.5.` j ; % r g +.) P r o . g &.) l r 4 + ; ) ;.j.#.E r 2 0 ! 6.8.! Q S w D r.o.T.V.y.V < = ",
"..E.~.H.y.V 9 2 V 4.X.n n u 1 < D h.3.D D p : : c j ~ ) K : . . j ) ) J p r & 4 E -.q.D g 0 ; 0 !  .<.{  .Q M [ 2.[ H.v.r.D < = ",
"r.H.H.o.[ b 2 < V c.2.n S V u w ! f.3.D D j 4 4 E g v ~ T 4 o + j ) ) +.~ j ; : J %.~ D E D i r D _ 9.a.2.V w b ..o.H.V.V.y.w 9 ",
"X.b.y.| ] n 2 1 F Z.S.{ p.{ u 0 ! 7.! D E t & : v p v ) E t % ; T =.=.#.) g & % k ` R E ` x u 0 A D C C n w < q F y.u.X.] S 9 9 ",
"^ x.u.X.Q V 9 9 Q S.M.Q { D 0 9 D 5.' R E p ; 9 x t v ( T x ; : ( q.s.=.#.t $ $ x #.( #.' g 9 2 n <.:.Q V V q u [ | F D V n 2 , ",
"V [ [ ] S n 2 2 | 2.{ [ <./ 1 $ y ` 3.' E k 0 g k g T #.( E ; 2 _ s.q.#.E 9 + $ x %.#.#.` C 0 0 g :.<.{ Q C q u | |  .2.1...w = ",
"u V Q | [ V 9 < C C [ 2.2.Q 9 O w _ 6.#.E k 9 i r j ( #.E x ; 2 R 3.=.` x : $ % R 5.6.' #.D 0 9 g  .1. .| D 9 w {  .2.N.M.X.< $ ",
"n 8.c.c.8.Q w 2 A Q 4.c.8.Q 0 ; Q a.h.3.! i ; 9 9 D 6.6.! i ; 8 _ 5.5.` g 9 ; 9 ' f.7.! R i % $ 0 _ 8.1.{ C 2 u 4.8.c.a.c.{ % O ",
"n 8.B.N.B._ w < V _ 1.8. .D u < V 1.6.` T r $ % : T s.3.! u ; ; g E ` D t i : 9 E 7.:.E R 0 $ . 9 _ 9.1./ n 1 u 1.8.8.8.4.F $ . ",
"b <.M.9.f.D ; % C 8.M.a.:.A 0 % u 1.h.Q C 0 $ ; r R <._ T u < ; g / ' D i g ; ; D 3.#.! ! 0 $ o 0 :.8.1.A 9 $ < g D D D A g < O ",
"u / 3.M.3.u $ $ W f.:. .:.C ; $ 0 <.C. .! g - 0 / 3.h.3.D V 2 % i 3.6./ k k ; $ C :.` _ _ u $ $ u 3.C.8.Q 9 O $ f / Q D f n 1 $ ",
"u `  .f.a.y $ $ D 6.' '  .y $ O V f.h.' _ g 1 i ' :.a.9.! W 2 $ 0  .<.D m g < - ! f. ._  .g < < g 1.U.8.T 9 o ;  .B.h.8. .W ; $ ",
"D a.f.f.6.u $ O k _ _ 3.f.g $ $ Q 9.9. .Q m 9 f 8.B.A.9.Q / 9 O w 3.! g n g 2 2 :.B.:.{ _ i % < C 3.h.3.D 2 . < 3.k.A.' Q V ; % ",
"0 R :.3._ 2 O O k ' ' 6.9.u o $ Q 3.4.<.A n 9 u  .<.<.{ n b < $ V 8.<.Q Q A 0 w { 1. .}  .u % - C :.6.' D 2 . ; #.6.l.! g 0 % $ ",
"9 T >.3.T ; . o D 7.7.6.<.9     V _ 1._ V A 0 2 A D D D V n < , b <.c. .{ D w f / <.:. .{ u % ; D :._ m u : $ 0 6.f.g.C 0 ; $ . ",
"j %.6.5.g % . % ` z.k.i.' 0 .   Q  .W V Q D < $ f Q [  .8.Q 2 w V 4.1.,.{ Q 9 w f Q  .4.<.V 9 < D <.R i r 0 9 g #.R T k i 2 % % ",
"%.z.d.=.r % o 9 =.7.' D C 9 $ ; 3.B.:.{ 4.V % O n x.c.S.L.Q < u D u.u. .| S < < n { 8.N.8.A 1 $ g 7.R g D C i r k g g x k r 0 r ",
"E z.j.%.0 ; + 0 #.#.D p f 0 ; 0 _ 8./ 3.<.f % < 2.R.N.S.S.S < s S 2.Z.V.c.F 2 < S u.F.N./ u $ O g f.T g _ R 0 ; 0 t j x E v g 0 ",
"0 ) =.E 5 : % r #.#.v k C g 0 u Q 9.D Q ! y < 9 D | F | ..V , u V V 2.{ Q d q w Q N.F.4.V 1 O $ D :.C C ' k & $ 9 x E ) ) T 0 ; ",
"; v %.J 0 t 4 t E #.E D _ E g i C <.D D / u < - q M M D S w $ $ q b X.t.| b 2 9 ^ c.V. .A u $ $ g V j _ %.t $ o g #.;.d.&.x ; + ",
"9 ( =.J t h 0 r ( =.%._ =.' u ; 2 g _  .[ i q < w [ ..r...H 2 O 2 H b.Z.y.S 3 q F V.S.8.2.A 2 2 V C R #.( r $ % R ;.E c j : o . ",
"t ) +.~ x h 0 : c %.s.#.$.x ; o $ i  .<.{ u u 2 b K.K.Q.I.r.s , N V.Q.Q.n.] e b y.Y.S.c.1.V % ; V ! 6.5.` 0 % ; x O.J k x : . . ",
"L +.+.+.P t 5 ; j #.7.' ' i o . 2  .N.4.{ b u 2 d K.E.^.T...9 * b H.Q.K.n.^ 2 2 V [ [ { [ u O % V V 6.5.' 0 $ $ t ~ v j J t ; : ",
"J O.@.&.*.t ; @ p ( =.' ' 9 .   i a.B.c.8.S u 2 w b.K.K.H.V = $ a H.I.v.y.V $ , F y.X.Q Q w $ % V g #.' _ r $ + t ~ E L ) p & 4 ",
"p Y 0.*.@.r % + j ) ;.D A 2 o   f <.N.4.Q w % % s y.n.v.n.G 2 * a y.t.G S q . $ S x.4.X. .V < ; V m ' 5.#.j & % g @.+.&.&.p + + ",
"6 U P p r ; o + c %.q.k C u % % ! <.c. .V 2 O < H b.b.n.y.V 2 , s v.H.r...d $ O S X.y.4.[ D 2 % C _  .7.3.C 9 ; p #.=.*.P 4 o . ",
"7 U P z t % . o J =.s.g T C 9 0 <.{ { 2.[ w = b y.V.G.v.r.b < * V H.~.H.m.V < $ [ V.K.V.S S < $ V a./ 6.3.x : % 4 x K h r : @ . ",
"h P P J g 4 $ 4 #.=.%.g D D 9 i 1.Q n  .X.n 2 S n.Z.H.o.e.w.b 3 ] T.~.G.v.s $ O S H [ F n i 9 9 / 9.A R E f ; ; 9 x +.J x t 5 # ",
"l P Y U v t ; 0 x v x k R C < ; f V V 2.u.S w V x.V.K.^ G H a < Z m.P.r.e.w $ $ ..c.u.[ V i 9 9 V :.Q R ( k : ; 4 v -.O.+.h & # ",
"z P +.P J r o + 0 r t D ` C 2 ; n ! { 1.8.V 2 d x.V.v.S G G 2 O a e.G.v.v.b = 2 Z.!.E.M. .S i 0 u _ _ ' ' D 9 ; ; x @.@.@.p # + ",
"z @.@.P J 5 .   0 v ( #.=.D r 0 ! a.M.<.2.V 2 w [ ^ [ ^ ^ N < O a e.w.e.r.G 3 q 2.K.S.c.Q n 0 2 i ! :.<.#.E 9 ; : v @.@.U p # o ",
"z *.*.+.K 8 o o v ;.z.d.6.A 0 w Q 1.<.Q Q n 2 n ..H 2.y...n < * B e.[ ....G 2 3 | D.K.c.S w ; % i #.5.#.( k : % : j ) ) I p @ o ",
"g &.) l r 4 + ; ) ;.j.#.E r 2 0 ! 8.8.! Q S w S r.o.E.V.y.V < = H H.I.H.v.^ w 2 F V.L.:.V 0 % % k h.f.=.` j ; % r g +.) ~ r o . ",
"j ) ) J p r % > E -.q.D g 0 ; 0 !  .<.{  .Q M [ 2.[ H.x.r.S < = ..E.~.H.y.V 9 2 V y.X.n n u 1 < D h.3.D D p : : c j ~ ) K : . . ",
"j ) ) +.~ j ; ; J %.~ D E D i y D _ 9.a.2.V w b ..o.H.V.V.y.w 9 r.H.H.o.[ b 2 < V c.2.n S V u w ! f.%.D D j 9 9 E g v ~ T 4 o $ ",
"T =.=.#.) j & % k ` R E ` x u 0 A D C C n w < q F y.u.X.] S 9 9 X.b.y.| ] n 2 < F Z.S.{ p.{ u 0 ! 7.! D E t & : v p v ) E t % ; ",
"( q.d.=.#.t $ $ x #.( #.' g 9 2 n <. .Q V V q e [ | F D V n 2 , ^ x.u.X.Q V 9 9 ^ S.M.Q { D 0 9 D 5.' R ! p ; 9 x t v ( T x ; : ",
"( s.q.#.E 9 + + x %.#.#.` C 0 0 g :.<.{ Q C q u | |  .2.1...w = V [ [ [ S n 2 2 | 2.{ [ <./ 1 $ r ` 3.' ! k 0 g k g T #.( E : 2 ",
"R 3.=.` c : $ % E 5.6.' #.D 0 9 g  .1. .| D 9 w {  .2.N.M.X.< $ u V Q | [ V 9 < C C [ 2.2.Q 9 O w _ 6.:.! k 9 i r j ( #.~ x ; 2 ",
"_ 5.5.` g 9 ; 9 ' f.7.! R i % $ 0 _ 8.3.{ C 2 u 4.8.c.a.c.{ % O n 8.c.c.8.Q w 2 A Q 4.c.8.Q 0 ; Q a.h.3.! p ; 9 9 D 6.6.! p ; 8 ",
"g E ` D t i : 9 E 7.:.E R 0 $ . 9 _ 9.1./ n 1 u 1.8.8.8.4.F $ . n 8.B.N.B._ 0 < V _ 1.8. .D u ; V 1.6.` T r $ $ 1 T s.3.! u ; ; ",
"g / ' D i g ; ; D 3.#.! ! 0 $ o 0 :.8.1.A 9 $ < g D D D A g ; O b <.M.9.f.D ; % C 8.M.a.:.A 0 % u 1.h.Q C 0 $ ; r R <._ D u ; - ",
"i 3.6./ k V ; $ C :.` _ _ u $ $ u 3.C.8.Q 9 $ $ f / Q D f n 1 $ u / 3.M.3.u $ $ W f.:. .:.C ; $ 0 <.C. .! g - 0 / 3.h.3.D k 2 % ",
"0  .<.D m g < - ! f. ._  .g < < n 8.U.8.D 9 O <  .B.h.8. .D ; $ u }  .f.a.y $ $ D 6.' '  .y $ O V f.h. ._ g 1 u ' :.a.9.! W 2 $ ",
"w 3.! g n g 2 2 :.B.:.{ _ i % < C 3.h.3.A 2 . < 3.k.A.' Q V ; % A a.f.f.6.u $ O k _ _ 3.f.g $ $ Q 9.9. .Q m 9 f 8.B.A.9.Q / 9 O ",
"V 8.<.Q Q A 0 w { 1. .{  .u % - C :.6.' D 2 . ; #.6.l.! g 0 % $ 0 R :.3._ 2 o o k ' ' 6.9.u o $ Q 3.4.<.A n 9 u  .<.<.{ n b < $ ",
"f <.c. .{ D w f / <. . .{ u % ; D :._ m r : $ 0 6.f.g.C 0 ; $ . 9 T >.3.T ; . o D 7.7.6.<.9     k _ 1.{ V A 0 2 A D D D V n < , ",
"V 4.1.,.{ Q 9 w f Q  .4.<.V 9 < D 3.R i r 0 9 g #.R T k i 2 % % j =.6.5.g & . % ` z.k.i.' 0 .   Q  .W V Q D < $ f Q [  .8.Q 2 w ",
"D u.u. . .S < < n { 8.N.8.A 1 $ g 7.R g D C i r k g g x k r 0 r %.z.d.=.t % o 9 =.7.' D C 9 $ ; 3.B.:.{ 4.V % O n x.c.S.L.Q < u ",
"S 2.Z.V.c.F 2 < S u.F.N./ u $ O g f.T g _ R 0 ; 0 t j c E v g 0 E z.j.%.0 ; $ 0 #.#.D p f 0 ; 0 _ 8./ 3.2.b % < 2.Q.N.S.S.S < s ",
"V V 2.{ Q d q w Q N.F.4.V 1 O $ D :.C x ' k & $ 9 x E ) ) T 0 ; 0 ) =.E 8 : % r #.#.v k C g 0 u Q 9.D Q ! y < 9 D | F | ..V , u ",
"q b X.t.| b 2 9 ^ c.V. .A u $ $ g V m _ %.i $ + g +.;.d.&.x ; + ; v %.J 0 r 4 t E #.E D _ E g i C <.D D / u < , q M M D S w $ $ ",
"2 H b.Z.y.S 3 q F V.S.8.2.A 2 2 V C R #._ r $ % R ;.E c j : o . 9 ( =.J t h 0 r ( =.%._ 5.' u ; 2 g _  .[ i q < w [ ..r...H < O ",
"N V.Q.Q.n.] e n y.Y.S.c.1.V % ; V ! 6.5.` 0 % ; x O.J x x : . . p ) +.~ x h 0 : c %.s.#.$.C ; o $ i  .<.{ u u 2 b K.K.Q.I.r.s , ",
"b H.Q.K.n.^ 3 2 V [ [ { [ u O % V V 6.5.' 0 $ $ t ~ v j J t ; : L +.+.+.P t 5 ; j #.7.' ' i o . 2  .N.4.{ f u 2 d K.E.^.T...9 * ",
"w H.I.v.y.V $ , F y.X.Q Q w $ % V g #.' _ r $ + t ~ E L ) p & 4 J O.@.&.*.t ; @ p ( =.' ' 9 .   i a.B.c.8.S u 2 w v.K.K.H.V = $ ",
"w y.t.G Z q . $ S x.4.X. .V < ; V m ' =.#.j & % g @.+.&.&.p + + p Y 0.*.@.7 % + g ) ;.D A 2 o   f <.N.4.Q w % % s y.n.v.n.G 2 * ",
"s v.H.r...d O O S X.y.4.[ D 2 % C _ ' 7.3.C 9 ; p #.=.-.P 4 o . 6 U P p r ; o + c %.q.k C u % % ! <.c.| V 2 O < H b.b.n.y.V 3 , ",
"V H.~.H.m.V < * [ V.S.V.S S < $ V a./ 5.3.x ; % 4 x J h r : @ . 7 U P z t % . + J =.s.g T C 9 0 <.{ [ 2.[ w % b x.V.V.v.r.b < * "
};
