/* XPM */
static char *wooden_door[] = {
/* columns rows colors chars-per-pixel */
"56 64 218 2 ",
"   c #1C0402",
".  c #1B0906",
"X  c #1E0A09",
"o  c #160402",
"O  c #250202",
"+  c #2A0404",
"@  c #230907",
"#  c #2B0807",
"$  c #210A0A",
"%  c #2D0A09",
"&  c #2D0608",
"*  c #330504",
"=  c #310806",
"-  c #320A0A",
";  c #3B0D0B",
":  c #330708",
">  c #35110E",
",  c #39100E",
"<  c #360F10",
"1  c #2A1512",
"2  c #351212",
"3  c #3C1313",
"4  c #3F1919",
"5  c #331F20",
"6  c #352120",
"7  c #450501",
"8  c #490501",
"9  c #4B0B06",
"0  c #4B0C09",
"q  c #460A06",
"w  c #530E09",
"e  c #530E07",
"r  c #54120D",
"t  c #59110D",
"y  c #411617",
"u  c #4C1614",
"i  c #421B1A",
"p  c #4B1B1A",
"a  c #481817",
"s  c #531512",
"d  c #531B16",
"f  c #551D1A",
"g  c #5A1E1B",
"h  c #4D100B",
"j  c #651C16",
"k  c #631E1A",
"l  c #6C1F1C",
"z  c #701F1D",
"x  c #4D211F",
"c  c #55211D",
"v  c #5B211D",
"b  c #64211D",
"n  c #6C211D",
"m  c #70211E",
"M  c #4D2221",
"N  c #532524",
"B  c #5B2321",
"V  c #552A2B",
"C  c #592929",
"Z  c #553736",
"A  c #5D3635",
"S  c #563837",
"D  c #5C3836",
"F  c #563538",
"G  c #583738",
"H  c #563838",
"J  c #583939",
"K  c #622422",
"L  c #6E2521",
"P  c #642926",
"I  c #6B2925",
"U  c #642C2B",
"Y  c #692E2C",
"T  c #712622",
"R  c #742A26",
"E  c #792A26",
"W  c #752D2A",
"Q  c #7A2E2B",
"!  c #66312F",
"~  c #6B302F",
"^  c #75302D",
"/  c #7A312D",
"(  c #79382F",
")  c #623534",
"_  c #6B3231",
"`  c #6D3C3B",
"'  c #7E3633",
"]  c #7D3935",
"[  c #733C3A",
"{  c #7D3D3A",
"}  c #713333",
"|  c #692F30",
" . c #74423E",
".. c #7F413E",
"X. c #723F41",
"o. c #6C4543",
"O. c #754241",
"+. c #764947",
"@. c #784A45",
"#. c #784644",
"$. c #822E2A",
"%. c #85322D",
"&. c #8B332E",
"*. c #823633",
"=. c #8B3532",
"-. c #823936",
";. c #8C3A35",
":. c #833D3B",
">. c #8D3D3A",
",. c #923632",
"<. c #933935",
"1. c #943D39",
"2. c #9A3E3B",
"3. c #993E37",
"4. c #90332F",
"5. c #84403E",
"6. c #8D413E",
"7. c #94413C",
"8. c #9C423D",
"9. c #9C483F",
"0. c #A1443F",
"q. c #BA683F",
"w. c #863F41",
"e. c #8D4341",
"r. c #854C4A",
"t. c #8C4D4C",
"y. c #864645",
"u. c #954542",
"i. c #9D4542",
"p. c #944B45",
"a. c #9C4945",
"s. c #954C4A",
"d. c #9D4C49",
"f. c #8F504F",
"g. c #96514E",
"h. c #904F50",
"j. c #8D5151",
"k. c #865051",
"l. c #915152",
"z. c #9A5A58",
"x. c #A14643",
"c. c #A24A45",
"v. c #A44D4A",
"b. c #A94E4A",
"n. c #A3524D",
"m. c #AC524E",
"M. c #B2534D",
"N. c #A65552",
"B. c #AB5653",
"V. c #A75954",
"C. c #AB5956",
"Z. c #A65B5A",
"A. c #AB5958",
"S. c #B35653",
"D. c #B55A55",
"F. c #B95B55",
"G. c #B45D59",
"H. c #BB5E5A",
"J. c #B75658",
"K. c #98615F",
"L. c #A2624E",
"P. c #AA625E",
"I. c #B3605E",
"U. c #BD625D",
"Y. c #B56E55",
"T. c #996464",
"R. c #AC6462",
"E. c #A66664",
"W. c #BD6563",
"Q. c #B46865",
"!. c #BE706D",
"~. c #C2645F",
"^. c #C96E53",
"/. c #C66F4E",
"(. c #C36662",
"). c #C56965",
"_. c #C96B66",
"`. c #C46D6B",
"'. c #CB6D6A",
"]. c #C3716D",
"[. c #CC716E",
"{. c #C87065",
"}. c #D1726E",
"|. c #D47A6C",
" X c #CC7471",
".X c #C47875",
"XX c #CB7875",
"oX c #C17271",
"OX c #D37672",
"+X c #D57975",
"@X c #D97A75",
"#X c #D37C79",
"$X c #D97D7A",
"%X c #CD6F70",
"&X c #D99A3B",
"*X c #CF825B",
"=X c #E4984B",
"-X c #E3B943",
";X c #D6817E",
":X c #DA807E",
">X c #CE806D",
",X c #F2DA71",
"<X c #DA8783",
"1X c #E28D89",
"2X c #E79A96",
"3X c #E99A97",
"4X c #E79A99",
"5X c #EA9D9B",
"6X c #E89695",
"7X c #EC9793",
"8X c #EEAA89",
"9X c #EAA887",
"0X c #EBA59D",
"qX c #EFB196",
"wX c #F9B0AF",
"eX c #F9B0AF",
"rX c #EBC687",
"tX c #F4CC8B",
/* pixels */
"A A A ) A A A A A A A A A A A A A `  . . .O. . .O.O.O.O.O.O.O.O.O.#.X.) A A A A A A ) A A A A ) ) A A A A ) A A ",
"N 2 $ @ $ $ $ $ $ $ $ $ $ O O 2 < 3 3 3 3 3 3 , 3 3 & & > & 3 3 3 3 3 < < < 2 3 2 & @ @ $ $ @ $ @ @ @ @ . $ 2 N ",
"V X $ i 4 4 4 4 4 4 4 i i M ) U [ [ ` [ @.@.+.+.+.O.o.1 1 o.+.+.@.O.[ [ [ [ _ N N i i i i i i i i i 4 i i $ X V ",
"V X N d.u.a.a.a.a.i.a.a.c.U.+X).OX$X$X$X7X7X5X5X3X3XeXJ J eX3X3X5X1X#X:X+X$XW.8.a.u.a.a.i.a.i.a.a.a.a.i.d.N . V ",
"V X x i.c.G.n.B.A.d.G.c.m.M.c. XI.`.].G. XI.`.`.D.[.5XZ Z 5X[.G.).).H.OXn.B.B.c.G.c.S.B.c.G.c.B.B.c.A.c.i.M X V ",
"V X x c.B.a & = & = w w w %.B.y = = = ; s s r 6.OXD.5XG Z 4XD.OX>.t t s = & = & y B.%.w e r = : = = y B.b.M X V ",
"V X M c.a.O ` t.r.t.s.g.K n A.  ` t.y.t.s.g.k L '.).5XG Z 5X)._.L k g.s.t.r.h.O.O V.n b g.s.t.r.j.` O a.c.M X V ",
"V X x c.a.# y.`.).(.(.$X-.n B.& s.`.`.W.`.:X/ L '.).5XZ Z 5X).'.L ' :X).W.'.`.f.& B.n -.:X).~.).`.t.& a.c.M X V ",
"V X x c.B.& u =.7.=.8.[.-.n A.& s =.2.=.i.%XW R +XF.4XJ Z 4XD.+XR Q [.8.=.2.=.d & A.n ' [.8.&.2.=.s # N.c.x X V ",
"V X M a.u.& c %.1.c.c. X-.n A.O v %.3.c.c. X/ n (.}.5XZ Z 5X[.(.n /  Xx.c.2.%.v & B.n '  Xc.c.2.%.v # u.x.M X V ",
"V X M c.N.& g 1.i.<.i.[.' l B.O g 1.8.<.x. XQ R +XF.4XA G 5XD.+XR Q  Xx.<.x.1.g & B.n '  Xx.<.i.;.g # N.c.x X V ",
"V X M c.a.# g =.8.i.x.[.' n B.O g =.8.8.x. X/ L '.).5XZ G 5X).'.L /  Xx.8.8.=.v & B.n '  Xx.8.2.-.g # d.c.x X V ",
"V X M c.d.& g =.8.i.x.[.' l B.O g =.8.x.c. X/ L '.).5XZ Z 5X).'.L /  Xx.i.8.=.v & B.n '  Xc.i.2.-.g # d.c.x X V ",
"V X M c.B.# g 1.0.<.i.[.' n B.& g 1.i.<.8. XQ W @XD.4XJ H 4XD.+XR Q  Xx.<.i.1.g & A.n ' [.8.<.x.1.g # N.c.x X V ",
"V X M c.7.& g %.1.c.4.`.' n B.& g %.2.x.&.`./ l (.}.5XZ Z 5X}.(.n / [.&.x.2.%.v & A.n ' ).&.c.1.%.g & u.c.M X V ",
"V X M c.N.= B / %.8.c.#X:.l A.& K Q &.8.x.+X' R +XF.4XZ H 4XD.+XW ' #Xc.8.=.Q K & B.n -.+Xc.i.%.Q B & N.c.M X V ",
"V X M c.a.O # ; ; s b ' s n B.  = ; , u K -.r L '.).5XZ Z 5X).'.R r ' b u ; ; &   V.n s / k u ; ; & O d.c.M X V ",
"V X M c.a.B p p p g k j j ;.D.g p p p g k j k ;._.).5XZ Z 5X'._.;.j j k g p p p g B.=.j j k p p p p c c.a.M X V ",
"V X M c.D.d.s.d.d.s.a.c.a.c.F.s.s.d.s.s.d.c.u.B.}.D.5XH H 5XD.OXS.i.c.d.s.s.s.s.a.D.b.i.a.d.a.s.s.s.s.H.c.M X V ",
"V X M a.7.& O & O & 0 w 7 R B.& O O & & q 9 7 R ~.[.5XZ Z 5X[.(.R 8 9 9 = O & O & B.E 7 9 q & & O O & u.c.M X V ",
"V X M c.N.& r.Q.E.R.G.Q.R n B.O j.R.P.R.R.Q.L R +XH.5XZ Z 4XF.OXW L Q.P.R.P.R.j.& B.z Y Q.P.R.A.Q.k.& N.c.M X V ",
"V X M c.d.# ] G.G.B.G.#X-.n B.& { D.G.B.D.#X/ L '.).5XZ Z 5X).'.R ' #XD.B.G.G.{ & A.n ' +XF.S.H.G.{ & d.c.x X V ",
"V X M c.a.& u =.1.,.8.].-.n A.& d %.1.;.2. X/ n _._.5XA Z 5X).'.L /  X8.,.1.%.d & A.n ' [.8.<.8.%.s & d.c.x X V ",
"V X x c.N.# g &.2.c.x.[.-.n B.& v %.1.i.i. X^ R +XD.4XH Z 4XS.+XW Q  Xi.c.1.-.B O A.l '  Xc.c.1.%.g & N.c.x X V ",
"V X M c.u.# d 1.x.,.x. X-.l B.O g 1.8.;.8. X/ n (.[.0XZ Z 5X[.(.n /  Xi.<.i.>.g O A.l ' [.x.,.x.1.g # u.a.M X V ",
"V X x c.N.# g %.2.x.x.[.-.l B.O v %.1.8.i. X/ R OXH.4XZ Z 4XF.+XR Q  Xi.i.1.-.v O A.l ' [.x.c.2.%.g # N.c.x X V ",
"V X M c.a.# g ;.8.2.x. X-.n B.O v =.7.1.a. X/ L '.(.5XZ Z 5X(.'.L Q  Xx.1.2.;.v O A.l ' [.c.8.8.=.g # d.c.x X V ",
"V X M c.a.# g >.i.1.8.].' n B.& g ;.8.1.7. X/ n _.'.5XZ Z 5X)._.n /  X2.<.i.;.g O A.l ' [.8.<.i.1.g # d.c.x X V ",
"V X x c.B.# d $.<.x.,.`.-.n B.& v $.<.i.=.].^ R @XJ.5XJ Z 5XD.@XR Q [.4.8.2.$.v & B.l -.`.,.c.<.$.g & N.c.x X V ",
"V X M c.u.& c W / 1.c.XX-.l A.& K Q / 7.x.XX/ n (.[.0XH Z 5X{.(.n ' XXa.1.$.W B & B.n -.XXc.1./ W B # s.c.x X V ",
"V X x c.N.O O & & ; s k 0 n B.  O & & ; s k q L |.rXqXG Z qXrX>XL 9 b r ; & & O   V.L 0 b s ; & # O O n.c.x X V ",
"V X M c.m.} Y U Y Y Q Q E 1.D.^ U Y Y Y Q Q R L.rX,XqXZ Z qX,XrXL.R Q / Y U Y Y ~ D.7.Q Q / Y Y Y ~ _ b.c.M X V ",
"V X M a.c.>.{ { { { >.<.;.c.D.:.{ :.:.:.>.1.-.Y.tX-X9XZ Z 8X-XtXY.-.>.>.:.{ :.{ >.F.c.>.>.>.-.:.{ :...c.c.M X V ",
"V X M n.V.& O & & = 0 r 7 n B.O O # & = 0 s 7 W *X&X9XZ G 8X&X*XW 8 r 0 = & & O O V.R 7 r 0 = & & O O B.c.M X V ",
"V X M a.7.& z.XX!.oX`. X' n A.& T..X!.].].XXW n /.=X8XZ Z 8X=X^.L Q XX`.].!..XK.& A.m / XX`.].!..Xz.& u.a.M X V ",
"V X M c.N.# Y c.m.x.m. X-.n A.& W b.m.i.m.OXW R |.Y.3XJ G 9Xq.|.W / OXB.x.m.c.~ & A.n '  Xm.x.B.c.Y # n.c.M X V ",
"V X M c.d.# d &.1.2.i. X-.n A.& d &.2.7.i. X^ L [.~.5XG Z 5X(.[.R W  Xi.7.2.%.g & B.n ] [.8.2.1.%.d # c.c.M X V ",
"V $ M c.a.# g =.2.c.x. X' n B.& v =.2.x.c.[./ n _.'.5XZ Z 5X'.).n /  Xx.c.2.=.v & B.n ' [.x.x.2.&.g # a.c.M . V ",
"V $ M c.B.& g 1.8.<.x. X' l B.& g 1.0.,.x. XW R @XD.5XA Z 5XD.+XW Q  Xx.<.x.1.g & B.n ' [.x.,.i.1.g # B.c.M X V ",
"V $ M c.u.& g %.<.c.x. X' l B.& g %.2.c.x. X/ n (.}.5XZ Z 5X[.(.n /  Xx.c.2.%.v & B.n ' [.i.c.2.%.g # i.c.M X V ",
"V $ M c.N.& g <.8.1.c. X' l B.& g <.0.2.c. X/ R OXF.4XZ Z 5XF.OXW Q  Xc.<.x.;.g & A.n ' [.c.<.x.<.g # N.c.M X V ",
"V X M c.c.& g =.8.8.1.].' l B.& g ;.8.2.1.[./ L [.(.5XZ Z 5X~.[.R Q [.2.7.i.;.g & A.n ' [.1.8.i.,.g # d.c.M X V ",
"V X M c.a.# g $.<.x.<.[.-.l B.& g $.<.x.,.[./ n _.'.5XZ Z 5X'.).n / [.<.x.<.$.B & V.n -.[.,.x.<.$.v # a.c.M X V ",
"V $ M c.B.# p I W -.i.`.' n B.& c I R -.i.].W W @XS.4XJ Z 3XS.@XQ Q ].i.:.W I N & B.n ' `.i.;.R I c & B.b.x X V ",
"V X M c.7.O   O O = 0 r 7 L B.O O O O & 0 w 7 R (.[.5XZ Z 5X X(.R 7 w 0 = O O O O N.R 7 w 0 & O O   O u.a.M X V ",
"V $ M c.S.w.:.:.:.:.>.>.;.a.D.:.w.5...:.>.>.>.n.}.H.5XH Z 5XH.[.n.;.>.6.:.:.5.:.:.D.a.;.1.>.:.:.5.:.y.S.c.M X V ",
"V X M c.m.} P P P U W Q E 7.D.W U P P I R E W u.'.~.5XJ Z 5X(.'.i.R Q Q U U P U ~ D.7.W Q W I U P P _ m.c.M X V ",
"V X M a.s.O < i 3 p g b 9 n B.O 2 i y u g b 9 L _.'.5XG Z 5X'.).L 9 b k p y y 2 O V.m 9 l g a 3 i 2   i.c.M X V ",
"V X M c.B.# z.#X X X X;X-.n B.O E.+X X X X;X/ R @XS.5XJ Z 3XS.$XQ Q <X X X X#XE.& B.z -.;X X X X#Xz.& B.c.x X V ",
"V X M a.i.& v i.c.<.c. X-.n B.O v 8.c.<.c.[./ n ).[.5XZ Z 5X[.(.n /  Xc.1.x.8.K & V.l '  Xc.1.c.8.v # i.a.M X V ",
"V X M c.n.& d %.1.i.i. X-.n B.& g %.2.i.i. XQ R OXH.5XJ Z 5XH.OXR Q  Xi.i.2.%.v & A.l ' [.i.i.1.%.g # n.c.x X V ",
"V X x c.n.& g ;.8.8.x. X-.n B.& v ;.8.8.i. X^ I [.~.5XH Z 5X(.}.R Q  Xx.8.8.=.v & B.l '  Xx.8.8.=.g & c.c.M X V ",
"V X x a.a.& g <.i.<.x. X' n B.& g 1.8.<.i. X/ n ).'.5XJ Z 5X'._.n /  Xx.<.i.1.g & B.l '  Xi.<.x.;.g & a.c.M X V ",
"V X x c.B.# g %.1.c.x. X' n B.& v %.2.c.i. XW R +XS.5XJ Z 3XS.+XW Q  Xx.c.2.&.v & B.n '  Xi.c.1.%.g & B.c.M X V ",
"V $ x a.u.& g 1.i.<.x. X' n B.& g 1.8.<.c. X/ n ).}.5XA Z 5X'.(.n /  Xc.<.x.1.g & B.n '  Xx.<.i.>.g & i.c.M . V ",
"V X x c.n.# g =.8.8.,.`.' n B.& g =.8.8.<.[.Q R OXH.5XH Z 5XH.OXR Q [.<.8.8.=.g & B.n ' '.<.8.8.=.g & N.c.M X V ",
"V X M c.n.# B $.=.i.2. X-.l B.& K $.<.x.2.XX/ R [.~.5XH Z 5XW.}.R / OX2.i.<.$.B & Z.l -. X2.x.;.$.v # c.c.M X V ",
"V X M c.a.& i v b ^ >.P.W n B.& p v K ' 1.I.I n ).'.5XZ Z 5X'.).L L I.>./ K v p & Z.n W R.>.' K v i O s.c.M X V ",
"V X M c.V.= O & & = 9 0 8 R B.= & & & = 0 0 7 -.+XD.5XA Z 5XD.+X-.8 w 0 = & & & & N.E 8 w 9 & & & O = B.c.M X V ",
"V X M a.c.u.6.u.6.6.7.8.7.c.D.6.6.6.6.6.7.7.1.i.H.'.5XZ Z 5X'.H.i.>.7.7.e.e.6.6.e.D.c.7.8.i.u.u.u.e.u.c.a.M X V ",
"V X N c.b.H.M.F.F.M.H.M.F.F.D.[.}.}.[.[.[.[.#X<X1X6XwXJ Z wX7X1X1X;X[.[.[.}.OX_.i.S.b.a.c.c.c.c.c.c.c.i.d.N . V ",
"V $ 2 U ~ [ ~ _ _ Y [ ~ } _ ~ j.l.h.t.f.l.t.z.T.T.T.T.6 5 T.K.T.E.z.j.l.l.r.r.#.N U C N N N N N N N N N C 2 X V ",
"V 1 . O           .         @ 1 2 2 > 2 2 2 2 > , > O $ $ O > 2 > > > > 2 O o o X   . . . . . . . . . .   . 1 V ",
"N x M N M N N M M M M M M M N N U | Y | | Y _ ~ _ ~ ) ! ! ! ~ ) ) C N N N N N N N N N N M M M M M M M N N M M M "
};
